<svg xmlns="http://www.w3.org/2000/svg" width="14" height="14" viewBox="0 0 14 14"><path d="M5.556,18A1.559,1.559,0,0,1,4,16.444V5.556A1.559,1.559,0,0,1,5.556,4h4.667a.784.784,0,0,1,.554,1.332.753.753,0,0,1-.554.224H5.556V16.444H16.444V11.778a.778.778,0,1,1,1.556,0v4.667A1.559,1.559,0,0,1,16.444,18Zm3.111-4.667a.8.8,0,0,1,0-1.089l6.689-6.689H13.333a.784.784,0,0,1-.554-1.332A.752.752,0,0,1,13.333,4h3.889A.764.764,0,0,1,18,4.778V8.667a.778.778,0,1,1-1.556,0V6.644L9.736,13.353a.712.712,0,0,1-.525.214A.746.746,0,0,1,8.667,13.333Z" transform="translate(-4 -4)" fill="#fff"/></svg>