<svg xmlns="http://www.w3.org/2000/svg" width="61" height="61" viewBox="0 0 61 61"><g transform="translate(-93 -786)"><path d="M30.5,0A30.5,30.5,0,1,1,0,30.5,30.5,30.5,0,0,1,30.5,0Z" transform="translate(93 786)" fill="#fff"/><path d="M30.5,1A29.508,29.508,0,0,0,19.018,57.682,29.508,29.508,0,0,0,41.982,3.318,29.314,29.314,0,0,0,30.5,1m0-1A30.5,30.5,0,1,1,0,30.5,30.5,30.5,0,0,1,30.5,0Z" transform="translate(93 786)" fill="#0b4d93"/><path d="M-20.041-10.076h2.105v8.265h4.99V0h-7.1Zm12.7,6.453a2.117,2.117,0,0,1-.373.188,3.116,3.116,0,0,1-.516.133l-.437.082a2.825,2.825,0,0,0-.882.267A.894.894,0,0,0-10-2.126a.871.871,0,0,0,.277.721,1.042,1.042,0,0,0,.673.222,1.984,1.984,0,0,0,1.159-.369A1.574,1.574,0,0,0-7.342-2.9Zm-1.183-.909A3.041,3.041,0,0,0-7.752-4.7a.586.586,0,0,0,.417-.554.657.657,0,0,0-.318-.632,1.986,1.986,0,0,0-.933-.174,1.216,1.216,0,0,0-.978.342,1.421,1.421,0,0,0-.273.684h-1.88a2.859,2.859,0,0,1,.547-1.606,3.181,3.181,0,0,1,2.652-.984,4.712,4.712,0,0,1,2.174.485,1.863,1.863,0,0,1,.95,1.832v3.418q0,.355.014.861a1.083,1.083,0,0,0,.116.52.7.7,0,0,0,.287.226V0H-7.1a2.17,2.17,0,0,1-.123-.424q-.034-.2-.055-.451A4,4,0,0,1-8.2-.13,2.8,2.8,0,0,1-9.625.232,2.445,2.445,0,0,1-11.3-.345a2.06,2.06,0,0,1-.66-1.637A2.125,2.125,0,0,1-10.9-3.972,4.7,4.7,0,0,1-9.188-4.45ZM-4.234-6V-7.383h1.039V-9.461h1.928v2.078h1.21V-6h-1.21v3.938a.887.887,0,0,0,.116.571,1.28,1.28,0,0,0,.711.113q.089,0,.188,0t.195-.01V.068L-.98.1A2.477,2.477,0,0,1-2.867-.376a1.425,1.425,0,0,1-.328-1.032V-6Zm8.563-.048a1.323,1.323,0,0,0-1.049.424,2.115,2.115,0,0,0-.468,1.148H5.84a1.7,1.7,0,0,0-.468-1.172A1.454,1.454,0,0,0,4.329-6.043Zm0-1.606A3.905,3.905,0,0,1,6-7.3a2.934,2.934,0,0,1,1.23,1.1A3.755,3.755,0,0,1,7.8-4.662a9.933,9.933,0,0,1,.062,1.477h-5.1a1.852,1.852,0,0,0,.7,1.572,1.658,1.658,0,0,0,.971.28,1.4,1.4,0,0,0,.978-.342,1.623,1.623,0,0,0,.362-.513H7.768a2.471,2.471,0,0,1-.69,1.347A3.383,3.383,0,0,1,4.4.246,3.779,3.779,0,0,1,1.889-.67,3.694,3.694,0,0,1,.8-3.65a4.142,4.142,0,0,1,.981-2.967A3.354,3.354,0,0,1,4.329-7.649Zm6.56,5.271a1.3,1.3,0,0,0,.267.738,1.8,1.8,0,0,0,1.34.39,2.042,2.042,0,0,0,.913-.171.548.548,0,0,0,.338-.513.553.553,0,0,0-.273-.5,11.124,11.124,0,0,0-2.03-.588,4.228,4.228,0,0,1-1.784-.786,1.7,1.7,0,0,1-.52-1.34,2.324,2.324,0,0,1,.81-1.774,3.254,3.254,0,0,1,2.28-.742,4.183,4.183,0,0,1,2.273.557,2.386,2.386,0,0,1,1.008,1.924H13.563a1.152,1.152,0,0,0-.212-.595,1.333,1.333,0,0,0-1.094-.4,1.572,1.572,0,0,0-.906.2.571.571,0,0,0-.27.465.509.509,0,0,0,.287.485,12.429,12.429,0,0,0,2.03.54,3.729,3.729,0,0,1,1.743.827,1.878,1.878,0,0,1,.574,1.4,2.264,2.264,0,0,1-.824,1.808,3.87,3.87,0,0,1-2.546.7A3.833,3.833,0,0,1,9.752-.489a2.413,2.413,0,0,1-.837-1.89ZM16.589-6V-7.383h1.039V-9.461h1.928v2.078h1.21V-6h-1.21v3.938a.887.887,0,0,0,.116.571,1.28,1.28,0,0,0,.711.113q.089,0,.188,0t.195-.01V.068L19.843.1a2.477,2.477,0,0,1-1.887-.479,1.425,1.425,0,0,1-.328-1.032V-6ZM-17.548,3.924h2.208l4.013,7.034V3.924h1.962V14h-2.105l-4.115-7.157V14h-1.962ZM-4.425,7.957a1.323,1.323,0,0,0-1.049.424,2.115,2.115,0,0,0-.468,1.148h3.028a1.7,1.7,0,0,0-.468-1.172A1.454,1.454,0,0,0-4.425,7.957Zm0-1.606A3.905,3.905,0,0,1-2.75,6.7,2.934,2.934,0,0,1-1.52,7.8,3.755,3.755,0,0,1-.952,9.338a9.933,9.933,0,0,1,.062,1.477h-5.1a1.852,1.852,0,0,0,.7,1.572,1.658,1.658,0,0,0,.971.28,1.4,1.4,0,0,0,.978-.342,1.623,1.623,0,0,0,.362-.513H-.987a2.471,2.471,0,0,1-.69,1.347,3.383,3.383,0,0,1-2.68,1.087,3.779,3.779,0,0,1-2.509-.916,3.694,3.694,0,0,1-1.087-2.98,4.142,4.142,0,0,1,.981-2.967A3.354,3.354,0,0,1-4.425,6.351Zm8.556.2H6.107l1.135,5.366L8.4,6.549h2.03L8.274,14h-2L5.1,8.572,3.919,14H1.9L-.2,6.549H1.9l1.162,5.346Zm9.09,5.072a1.3,1.3,0,0,0,.267.738,1.8,1.8,0,0,0,1.34.39,2.042,2.042,0,0,0,.913-.171.573.573,0,0,0,.065-1.012,11.124,11.124,0,0,0-2.03-.588,4.228,4.228,0,0,1-1.784-.786,1.7,1.7,0,0,1-.52-1.34,2.324,2.324,0,0,1,.81-1.774,3.254,3.254,0,0,1,2.28-.742,4.183,4.183,0,0,1,2.273.557,2.386,2.386,0,0,1,1.008,1.924H15.894a1.152,1.152,0,0,0-.212-.595,1.333,1.333,0,0,0-1.094-.4,1.572,1.572,0,0,0-.906.2.571.571,0,0,0-.27.465.509.509,0,0,0,.287.485,12.429,12.429,0,0,0,2.03.54,3.729,3.729,0,0,1,1.743.827,1.878,1.878,0,0,1,.574,1.4,2.264,2.264,0,0,1-.824,1.808,3.87,3.87,0,0,1-2.546.7,3.833,3.833,0,0,1-2.594-.742,2.413,2.413,0,0,1-.837-1.89Z" transform="translate(124 815)" fill="#004d93"/></g></svg>