<?xml version="1.0" encoding="UTF-8"?>
<svg width="188px" height="48px" viewBox="0 0 188 48" version="1.1" xmlns="http://www.w3.org/2000/svg" xmlns:xlink="http://www.w3.org/1999/xlink">
    <title>logo_dummy</title>
    <g id="Page-1" stroke="none" stroke-width="1" fill="none" fill-rule="evenodd">
        <g id="PC-1200px" transform="translate(-656.000000, -12479.000000)" fill="#F76502">
            <g id="footer" transform="translate(0.000000, 12395.000000)">
                <g id="logo_dummy" transform="translate(656.000000, 84.000000)">
                    <path d="M28.9681343,5.97464 C28.4588507,5.83884 27.6731791,5.71284 26.6111194,5.59384 C25.5490597,5.47484 24.5599552,5.41604 23.643806,5.41604 C21.010403,5.41604 18.6449701,5.77584 16.5475075,6.49684 C14.4500448,7.21644 12.645806,8.26784 11.1333881,9.64824 C9.62097015,11.03004 8.4410597,12.71144 7.59225373,14.69524 C6.74204478,16.67904 6.31834328,18.73704 6.31834328,20.87344 C6.31834328,22.90764 6.71679104,24.69544 7.51508955,26.23824 C8.31338806,27.77964 9.44279104,28.96264 10.9047015,29.78444 C12.365209,30.60624 14.0712388,31.01784 16.025597,31.01784 C17.7737164,31.01784 19.6467015,30.64824 21.6431493,29.91184 C23.639597,29.17404 25.6641045,28.12824 27.7194776,26.77164 L26.7766716,33.48324 C22.887597,35.45024 19.0827015,36.43164 15.3633881,36.43164 C12.3904627,36.43164 9.73320896,35.78764 7.3888209,34.49964 C5.04443284,33.21304 3.22616418,31.38184 1.93541791,29.00884 C0.646074627,26.63584 0.000701492537,23.95764 0.000701492537,20.97424 C0.000701492537,16.90724 0.996820896,13.27144 2.99326866,10.06824 C4.98971642,6.86504 7.80831343,4.38564 11.4518657,2.63144 C15.0954179,0.87724 19.227209,-0.00056 23.8472388,-0.00056 C24.764791,-0.00056 25.8549104,0.05964 27.121806,0.17864 C28.3858955,0.29624 29.3665821,0.42364 30.0638657,0.55944 L28.9681343,5.97464 Z" id="Fill-1"></path>
                    <path d="M47.5926209,22.27148 C47.5926209,20.54248 47.1927701,19.13128 46.3944716,18.03788 C45.5961731,16.94448 44.5186806,16.39848 43.1591881,16.39848 C41.9357851,16.39848 40.8414567,16.84368 39.873397,17.73268 C38.9039343,18.62308 38.1407104,19.84388 37.5795164,21.39508 C37.0183224,22.94488 36.7391284,24.52548 36.7391284,26.13548 C36.7391284,27.23728 36.9341433,28.23268 37.3241731,29.12308 C37.715606,30.01348 38.2459343,30.69948 38.9165612,31.18248 C39.5871881,31.66548 40.3223522,31.90628 41.1206507,31.90628 C42.3272179,31.90628 43.4271582,31.48348 44.4204716,30.63648 C45.4137851,29.78808 46.1910388,28.62328 46.7508299,27.14068 C47.3120239,25.65668 47.5926209,24.03408 47.5926209,22.27148 M53.3757254,22.55148 C53.3757254,25.14428 52.849606,27.52148 51.7959642,29.68168 C50.7437254,31.84328 49.277606,33.53868 47.4018149,34.76648 C45.5246209,35.99568 43.4650388,36.61028 41.2230687,36.61028 C39.2350388,36.61028 37.4602627,36.15248 35.8987403,35.23688 C34.3344119,34.32268 33.1292478,33.03048 32.2804418,31.36028 C31.4302328,29.69148 31.0065313,27.81408 31.0065313,25.72948 C31.0065313,23.20388 31.5536955,20.86448 32.6494269,18.71268 C33.7451582,16.55948 35.2435463,14.88228 37.145994,13.67828 C39.0484418,12.47428 41.1038149,11.87368 43.3121134,11.87368 C45.2650687,11.87368 47.0061731,12.31468 48.5354269,13.19528 C50.0632776,14.07588 51.251606,15.33448 52.1018149,16.96968 C52.9506209,18.60628 53.3757254,20.46548 53.3757254,22.55148" id="Fill-3"></path>
                    <path d="M91.159797,35.97482 L85.5801254,35.97482 L87.6186627,21.40642 C87.7028418,20.67842 87.7449313,20.11002 87.7449313,19.70402 C87.7449313,18.58542 87.5414985,17.74542 87.1346328,17.18682 C86.7263642,16.62682 86.1735881,16.34682 85.4777075,16.34682 C84.578394,16.34682 83.5668418,16.72062 82.4458567,17.46682 C81.3248716,18.21162 80.1281254,19.38202 78.8542149,20.97522 L76.7132597,35.97482 L71.0830806,35.97482 L73.0697075,21.76342 C73.1721254,21.10122 73.2226328,20.43202 73.2226328,19.75442 C73.2226328,18.58542 73.014991,17.72442 72.5997075,17.17422 C72.1830209,16.62402 71.5502746,16.34682 70.7000657,16.34682 C70.106603,16.34682 69.4528119,16.54702 68.7386925,16.94462 C68.0259761,17.34362 67.2739761,17.91202 66.4840955,18.64842 C65.6942149,19.38622 64.9758866,20.16182 64.3305134,20.97522 L62.2162149,35.97482 L56.6112896,35.97482 L59.948991,12.48282 L65.5539164,12.48282 L65.0193791,16.09342 L65.120394,16.19562 C67.7032896,13.44882 70.2932,12.07682 72.8915284,12.07682 C74.4376179,12.07682 75.7031104,12.50522 76.688006,13.36062 C77.6729015,14.21602 78.2930209,15.39902 78.5483642,16.90682 C80.2291403,15.12742 81.758394,13.87722 83.1347224,13.15762 C84.5096478,12.43662 85.8859761,12.07682 87.2623045,12.07682 C89.1465134,12.07682 90.6406925,12.69142 91.7448418,13.91922 C92.850394,15.14842 93.4017672,16.85642 93.4017672,19.04322 C93.4017672,19.70402 93.3512597,20.36482 93.2488418,21.02562 L91.159797,35.97482 Z" id="Fill-5"></path>
                    <path d="M116.536149,22.6016 C116.536149,20.6024 116.017045,19.0092 114.981642,17.822 C113.946239,16.6362 112.553075,16.0426 110.803552,16.0426 C110.175015,16.0426 109.622239,16.0902 109.146627,16.1826 C108.672418,16.275 108.144896,16.4668 107.566866,16.7538 L105.479224,31.7548 C105.61391,31.8052 105.902925,31.8514 106.344866,31.8948 C106.786806,31.9368 107.21191,31.9578 107.618776,31.9578 C109.368299,31.9578 110.900358,31.577 112.217761,30.814 C113.533761,30.051 114.581791,28.9198 115.364657,27.419 C116.144716,25.9196 116.536149,24.3138 116.536149,22.6016 M122.268746,22.5008 C122.268746,24.2116 121.954478,25.907 121.32594,27.5856 C120.697403,29.2628 119.771433,30.772 118.549433,32.1104 C117.32603,33.4502 115.817821,34.5338 114.026209,35.364 C112.234597,36.1942 110.166597,36.61 107.822209,36.61 C107.686119,36.61 107.155791,36.5848 106.229821,36.5344 C105.303851,36.484 104.82403,36.4322 104.790358,36.3818 L103.185343,47.9486 L97.5299104,47.9486 L101.555075,19.6266 C100.790448,20.1866 100.157701,20.7424 99.6568358,21.2926 C99.1559701,21.8428 98.7434925,22.3398 98.420806,22.7794 C98.0981194,23.2204 97.8343582,23.576 97.6309254,23.8476 C97.4274925,24.1192 97.2240597,24.255 97.0192239,24.255 C96.815791,24.255 96.7147761,24.1192 96.7147761,23.8476 C96.7147761,23.3226 96.9560896,22.5596 97.4401194,21.5586 C97.9241493,20.5604 98.5695224,19.5426 99.3762388,18.5094 C100.182955,17.4748 101.087881,16.5606 102.089612,15.7626 L103.287761,7.119 L108.91794,7.119 L108.12806,12.4824 C109.282716,12.0764 110.675881,11.8734 112.306149,11.8734 C114.191761,11.8734 115.899194,12.3228 117.428448,13.2202 C118.956299,14.119 120.144627,15.3818 120.994836,17.0086 C121.843642,18.6354 122.268746,20.4666 122.268746,22.5008" id="Fill-7"></path>
                    <path d="M142.676287,16.653 C142.167003,16.6012 141.674555,16.576 141.198943,16.576 C139.788943,16.576 138.506615,16.7888 137.351958,17.2116 C136.195899,17.6358 135.194167,18.2756 134.345361,19.1324 C133.496555,19.9878 132.811899,21.0812 132.294197,22.4112 C131.775093,23.7412 131.516943,25.102 131.516943,26.4922 C131.516943,28.1694 131.887331,29.5162 132.625301,30.534 C133.364675,31.5518 134.353779,32.06 135.594018,32.06 C136.392316,32.06 137.266376,31.7968 138.2176,31.2718 C139.168824,30.7454 140.06954,30.0426 140.918346,29.162 L142.676287,16.653 Z M145.555212,35.9744 L139.925033,35.9744 L140.281391,33.5342 L140.256137,33.509 L140.180376,33.4824 C138.073093,35.4494 135.916704,36.4322 133.708406,36.4322 C132.231063,36.4322 130.879988,36.008 129.656585,35.161 C128.434585,34.314 127.474943,33.1492 126.77766,31.6652 C126.081779,30.1826 125.733839,28.5516 125.733839,26.7722 C125.733839,23.7888 126.421301,21.1442 127.79763,18.8398 C129.172555,16.534 131.10166,14.7966 133.580734,13.6276 C136.061212,12.4572 138.938734,11.8734 142.21751,11.8734 C144.442645,11.8734 146.650943,12.1268 148.842406,12.635 L145.555212,35.9744 Z" id="Fill-9"></path>
                    <path d="M168.307561,19.14402 C166.576278,18.14442 165.233621,17.47942 164.282397,17.14902 C163.32977,16.81722 162.447293,16.65342 161.632158,16.65342 C160.647263,16.65342 159.928934,16.81302 159.479979,17.13502 C159.029621,17.45702 158.805143,18.02542 158.805143,18.83882 C158.805143,19.17762 158.986128,19.54722 159.352307,19.94482 C159.717084,20.34382 160.272666,20.79742 161.02186,21.30562 L162.371531,22.21982 C163.899382,23.30482 164.957233,24.17422 165.542278,24.82662 C166.128725,25.47902 166.595919,26.18322 166.94386,26.93642 C167.2918,27.69102 167.46577,28.51702 167.46577,29.41582 C167.46577,30.78782 167.130457,32.01702 166.461233,33.10202 C165.789203,34.18702 164.837979,35.03402 163.606158,35.64442 C162.374337,36.25482 161.003621,36.55862 159.492606,36.55862 C158.048934,36.55862 156.630516,36.37802 155.237352,36.01262 C153.844188,35.64862 152.536606,34.99202 151.313203,34.04282 L152.230755,29.21142 C153.521501,30.04302 154.732278,30.69122 155.861681,31.15742 C156.991084,31.62362 158.06577,31.85602 159.084337,31.85602 C159.899472,31.85602 160.554666,31.66562 161.04571,31.28342 C161.539561,30.90262 161.786487,30.41542 161.786487,29.82182 C161.786487,29.31362 161.559203,28.78442 161.110248,28.23282 C160.65989,27.68262 159.983651,27.08482 159.084337,26.44082 C157.0458,24.98342 155.712964,23.92782 155.084427,23.27542 C154.45589,22.62302 153.980278,21.94542 153.657591,21.24262 C153.334904,20.53842 153.173561,19.80482 153.173561,19.04322 C153.173561,17.65302 153.508875,16.41122 154.179501,15.31782 C154.851531,14.22442 155.801352,13.37742 157.034576,12.77542 C158.264994,12.17342 159.662367,11.87382 161.22389,11.87382 C162.4978,11.87382 163.718397,12.08522 164.881472,12.50802 C166.044546,12.93222 167.186576,13.48382 168.307561,14.16142 L168.307561,19.14402 Z" id="Fill-11"></path>
                    <path d="M187.568442,19.14402 C185.837158,18.14442 184.494501,17.47942 183.543278,17.14902 C182.590651,16.81722 181.708173,16.65342 180.893039,16.65342 C179.908143,16.65342 179.189815,16.81302 178.74086,17.13502 C178.290501,17.45702 178.066024,18.02542 178.066024,18.83882 C178.066024,19.17762 178.247009,19.54722 178.613188,19.94482 C178.977964,20.34382 179.533546,20.79742 180.28274,21.30562 L181.632412,22.21982 C183.160263,23.30482 184.218113,24.17422 184.803158,24.82662 C185.389606,25.47902 185.8568,26.18322 186.20474,26.93642 C186.552681,27.69102 186.726651,28.51702 186.726651,29.41582 C186.726651,30.78782 186.391337,32.01702 185.722113,33.10202 C185.050084,34.18702 184.09886,35.03402 182.867039,35.64442 C181.635218,36.25482 180.264501,36.55862 178.753487,36.55862 C177.309815,36.55862 175.891397,36.37802 174.498233,36.01262 C173.105069,35.64862 171.797487,34.99202 170.575487,34.04282 L171.491636,29.21142 C172.782382,30.04302 173.991755,30.69122 175.122561,31.15742 C176.251964,31.62362 177.326651,31.85602 178.345218,31.85602 C179.160352,31.85602 179.815546,31.66562 180.306591,31.28342 C180.800442,30.90262 181.047367,30.41542 181.047367,29.82182 C181.047367,29.31362 180.820084,28.78442 180.371128,28.23282 C179.92077,27.68262 179.244531,27.08482 178.345218,26.44082 C176.308084,24.98342 174.972442,23.92782 174.345307,23.27542 C173.71677,22.62302 173.241158,21.94542 172.919875,21.24262 C172.595785,20.53842 172.434442,19.80482 172.434442,19.04322 C172.434442,17.65302 172.769755,16.41122 173.441785,15.31782 C174.111009,14.22442 175.062233,13.37742 176.294054,12.77542 C177.525875,12.17342 178.923248,11.87382 180.48477,11.87382 C181.758681,11.87382 182.979278,12.08522 184.142352,12.50802 C185.305427,12.93222 186.447457,13.48382 187.568442,14.16142 L187.568442,19.14402 Z" id="Fill-13"></path>
                </g>
            </g>
        </g>
    </g>
</svg>