<?xml version="1.0" encoding="UTF-8"?>
<svg width="32px" height="40px" viewBox="0 0 32 40" version="1.1" xmlns="http://www.w3.org/2000/svg" xmlns:xlink="http://www.w3.org/1999/xlink">
    <title>icon_step</title>
    <g id="Page-1" stroke="none" stroke-width="1" fill="none" fill-rule="evenodd">
        <g id="PC-1200px" transform="translate(-659.000000, -8204.000000)" fill="#000000">
            <g id="07" transform="translate(0.000000, 7286.000000)">
                <g id="流れ" transform="translate(251.000000, 918.000000)">
                    <g id="タイトル" transform="translate(404.000000, 0.000000)">
                        <g id="icon_step" transform="translate(4.000000, 0.000000)">
                            <path d="M29.7806857,18.1165091 L7.5785039,18.1165091 L2.15494026,11.9127273 L7.58504935,5.57149091 L29.7806857,5.57149091 L29.7806857,18.1165091 Z M30.7088312,3.71650909 L18.6075948,3.71650909 L18.6075948,0.928145455 C18.6075948,0.414981818 18.1913039,0 17.6794494,0 C17.1662857,0 16.7513039,0.414981818 16.7513039,0.928145455 L16.7513039,3.71650909 L7.15828572,3.71650909 C6.8873039,3.71650909 6.62941299,3.83432727 6.45399481,4.04116364 L0.22403117,11.3157818 C-0.0770597389,11.6666182 -0.0744415571,12.1837091 0.230576625,12.5293091 L6.46054026,19.6546909 C6.63595844,19.8562909 6.89123117,19.9714909 7.15828572,19.9714909 L30.7088312,19.9714909 C31.2219948,19.9714909 31.6369766,19.5565091 31.6369766,19.0433455 L31.6369766,4.64334545 C31.6369766,4.13149091 31.2219948,3.71650909 30.7088312,3.71650909 L30.7088312,3.71650909 Z" id="Fill-1" transform="translate(15.818488, 9.985745) scale(-1, 1) translate(-15.818488, -9.985745) "></path>
                            <path d="M14.0190545,20.9454545 C13.5058909,20.9454545 13.0909091,21.3604364 13.0909091,21.8722909 L13.0909091,38.8459636 C13.0909091,39.3578182 13.5058909,39.7728 14.0190545,39.7728 C14.5322182,39.7728 14.9472,39.3578182 14.9472,38.8459636 L14.9472,21.8722909 C14.9472,21.3604364 14.5322182,20.9454545 14.0190545,20.9454545" id="Fill-4" transform="translate(14.019055, 30.359127) scale(-1, 1) translate(-14.019055, -30.359127) "></path>
                        </g>
                    </g>
                </g>
            </g>
        </g>
    </g>
</svg>