<?xml version="1.0" encoding="UTF-8"?>
<svg width="60px" height="44px" viewBox="0 0 60 44" version="1.1" xmlns="http://www.w3.org/2000/svg" xmlns:xlink="http://www.w3.org/1999/xlink">
    <title>icon_cloud copy</title>
    <g id="Symbols" stroke="none" stroke-width="1" fill="none" fill-rule="evenodd">
        <g id="CV_orange-Copy" transform="translate(-556.000000, -29.000000)" fill="#3c468e">
            <g id="Group-Copy" transform="translate(465.000000, 0.000000)">
                <g id="Group-2" transform="translate(91.000000, 20.000000)">
                    <g id="Group" transform="translate(0.000000, 9.000000)">
                        <path d="M50.133871,5.96206452 L30.8254839,22.9343226 C29.8790323,23.7646452 28.3422581,23.7646452 27.3977419,22.9343226 L8.08935484,5.96206452 C7.5183871,5.46077419 6.65516129,5.51883871 6.15387097,6.08593548 C5.65451613,6.65496774 5.71064516,7.52206452 6.27967742,8.02141935 L25.5880645,24.9936774 C26.5751613,25.8627097 27.8429032,26.2962581 29.1125806,26.2962581 C30.3783871,26.2962581 31.6480645,25.8607742 32.6351613,24.9936774 L51.9454839,8.02141935 C52.5125806,7.52206452 52.5687097,6.65496774 52.0693548,6.08593548 C51.57,5.51883871 50.7029032,5.46270968 50.133871,5.96206452" id="Fill-1"></path>
                        <path d="M38.9709677,24.6572903 C38.3806452,24.1811613 37.5193548,24.2701935 37.0412903,24.8566452 C36.5632258,25.4430968 36.6522581,26.3082581 37.2387097,26.7863226 L50.1735484,37.3018065 C50.4290323,37.5089032 50.7348387,37.6095484 51.0387097,37.6095484 C51.4374194,37.6095484 51.8322581,37.4372903 52.1032258,37.1043871 C52.5812903,36.516 52.4922581,35.6527742 51.9058065,35.1747097 L38.9709677,24.6572903 Z" id="Fill-3"></path>
                        <path d="M19.2549677,24.6572903 L6.32012903,35.1747097 C5.73174194,35.6527742 5.64270968,36.516 6.12077419,37.1043871 C6.39174194,37.4372903 6.78851613,37.6095484 7.18722581,37.6095484 C7.49109677,37.6095484 7.79690323,37.5089032 8.05045161,37.3018065 L20.9872258,26.7863226 C21.5736774,26.3082581 21.6627097,25.4430968 21.1846452,24.8566452 C20.7065806,24.2701935 19.8433548,24.1811613 19.2549677,24.6572903" id="Fill-5"></path>
                        <path d="M57.1997892,36.4025806 C57.1997892,38.6883871 55.2473487,40.4767742 52.755418,40.4767742 L7.2248205,40.4767742 C4.74474672,40.4767742 2.80021079,38.6883871 2.80021079,36.4025806 L2.80021079,6.8283871 C2.80021079,4.53870968 4.74474672,2.74451613 7.2248205,2.74451613 L52.755418,2.74451613 C55.2473487,2.74451613 57.1997892,4.53870968 57.1997892,6.8283871 L57.1997892,36.4025806 Z M52.755418,0 L7.2248205,0 C3.17370397,0 0,3 0,6.8283871 L0,36.4025806 C0,40.2270968 3.17370397,43.2212903 7.2248205,43.2212903 L52.755418,43.2212903 C56.7512022,43.2212903 60,40.1612903 60,36.4025806 L60,6.8283871 C60,3.06387097 56.7512022,0 52.755418,0 L52.755418,0 Z" id="Fill-7"></path>
                    </g>
                </g>
            </g>
        </g>
    </g>
</svg>