<?xml version="1.0" encoding="UTF-8"?>
<svg width="24px" height="24px" viewBox="0 0 24 24" version="1.1" xmlns="http://www.w3.org/2000/svg" xmlns:xlink="http://www.w3.org/1999/xlink">
    <title>tel</title>
    <g id="Page-1" stroke="none" stroke-width="1" fill="none" fill-rule="evenodd">
        <g id="SP-320px" transform="translate(-40.000000, -15134.000000)" fill="#FFFFFF">
            <g id="footer" transform="translate(0.000000, 14899.000000)">
                <g id="Group-33" transform="translate(40.000000, 230.000000)">
                    <g id="tel" transform="translate(0.000000, 5.000000)">
                        <path d="M16.8135058,14.0808889 L16.8135058,14.0817778 L16.8135058,14.0808889 Z M22.2561725,19.4622222 C22.2561725,19.4622222 22.2552836,19.4622222 22.2552836,19.4631111 L22.2561725,19.4622222 Z M22.2579503,19.5804444 L22.2668392,19.5804444 L22.2579503,19.5804444 Z M4.3032836,1.29688889 C4.13795027,1.45777778 3.9672836,1.61866667 3.79572804,1.78133333 C2.5672836,2.94044444 1.29706138,4.14044444 1.26061693,6.00622222 C1.21261693,8.46488889 3.24639471,11.7573333 7.47572804,16.0711111 C11.7370614,20.4168889 15.0063947,22.5315556 17.4659503,22.5315556 C17.4881725,22.5315556 17.5095058,22.5315556 17.531728,22.5306667 C19.4543947,22.5013333 20.6739503,21.1777778 21.9655058,19.776 L22.2001725,19.5217778 L16.8748392,14.144 C16.5921725,14.4204444 15.371728,15.6142222 15.2801725,15.6986667 C15.2286169,15.7502222 15.1486169,15.8097778 15.0588392,15.856 C13.3823947,16.6995556 10.1255058,13.3742222 8.89617249,11.7253333 C7.6792836,10.0933333 7.37617249,8.93511111 7.99395027,8.28355556 L9.60550582,6.70311111 L4.3032836,1.29688889 Z M17.4650614,23.7911111 C14.6108392,23.7911111 11.147728,21.616 6.57617249,16.9537778 C2.03572804,12.3217778 -0.0540497334,8.83555556 0.00106137767,5.98222222 C0.0472835999,3.58666667 1.57883916,2.14133333 2.92995027,0.864888889 C3.11839471,0.688 3.30417249,0.512888889 3.48283916,0.336888889 C3.70772804,0.117333333 3.99572804,0.0115555556 4.31306138,0 C4.62239471,0.00177777778 4.92461693,0.130666667 5.14150582,0.352 L10.5655058,5.88355556 C10.7832836,6.10488889 10.9032836,6.4 10.9006169,6.71377778 C10.8988392,7.02844444 10.7743947,7.32266667 10.5503947,7.54222222 L8.93883916,9.12 C8.89083916,9.624 10.1592836,11.6693333 12.2099503,13.432 C13.6659503,14.6817778 14.3743947,14.7742222 14.4846169,14.7351111 C14.5370614,14.6693333 16.0641725,13.1751111 16.0641725,13.1751111 C16.5459503,12.728 17.2632836,12.7431111 17.7103947,13.1973333 L23.1548392,18.696 C23.5983947,19.1475556 23.6072836,19.8613333 23.1770614,20.3217778 L22.891728,20.6293333 C21.5432836,22.0933333 20.0143947,23.7528889 17.5512836,23.7911111 L17.4650614,23.7911111 Z" id="Fill-1"></path>
                    </g>
                </g>
            </g>
        </g>
    </g>
</svg>