<?xml version="1.0" encoding="UTF-8" standalone="no"?>
<svg width="38px" height="38px" viewBox="0 0 38 38" version="1.1" xmlns="http://www.w3.org/2000/svg" xmlns:xlink="http://www.w3.org/1999/xlink">
    <!-- Generator: Sketch 50.2 (55047) - http://www.bohemiancoding.com/sketch -->
    <title>Group 4</title>
    <desc>Created with Sketch.</desc>
    <defs></defs>
    <g id="Page-1" stroke="none" stroke-width="1" fill="none" fill-rule="evenodd">
        <g id="パーツリスト" transform="translate(-1308.000000, -2321.000000)" fill="#000000">
            <g id="Group-4" transform="translate(1308.000000, 2321.000000)">
                <path d="M19,35 C27.836556,35 35,27.836556 35,19 C35,10.163444 27.836556,3 19,3 C10.163444,3 3,10.163444 3,19 C3,27.836556 10.163444,35 19,35 Z M19,38 C8.50658975,38 0,29.4934102 0,19 C0,8.50658975 8.50658975,0 19,0 C29.4934102,0 38,8.50658975 38,19 C38,29.4934102 29.4934102,38 19,38 Z" id="Oval" fill-rule="nonzero"></path>
                <path d="M25.0253906,19.2128906 C25.0253906,20.5410223 24.810549,21.6949821 24.3808594,22.6748047 C23.9511697,23.6546273 23.3554726,24.4407522 22.59375,25.0332031 L24.9570312,26.8886719 L23.0917969,28.5390625 L20.0644531,26.1074219 C19.7193993,26.1660159 19.36133,26.1953125 18.9902344,26.1953125 C17.8118431,26.1953125 16.7604213,25.9121122 15.8359375,25.3457031 C14.9114537,24.779294 14.195315,23.9703829 13.6875,22.9189453 C13.179685,21.8675078 12.9225261,20.65821 12.9160156,19.2910156 L12.9160156,18.5878906 C12.9160156,17.188144 13.1682917,15.95606 13.6728516,14.8916016 C14.1774114,13.8271431 14.8902949,13.010094 15.8115234,12.4404297 C16.732752,11.8707654 17.7858014,11.5859375 18.9707031,11.5859375 C20.1556049,11.5859375 21.2086542,11.8707654 22.1298828,12.4404297 C23.0511114,13.010094 23.7639949,13.8271431 24.2685547,14.8916016 C24.7731145,15.95606 25.0253906,17.1848889 25.0253906,18.578125 L25.0253906,19.2128906 Z M22.0566406,18.5683594 C22.0566406,17.0774665 21.7897162,15.9446653 21.2558594,15.1699219 C20.7220025,14.3951784 19.9602914,14.0078125 18.9707031,14.0078125 C17.9876253,14.0078125 17.2291693,14.3902957 16.6953125,15.1552734 C16.1614557,15.9202512 15.8912761,17.0416593 15.8847656,18.5195312 L15.8847656,19.2128906 C15.8847656,20.6647208 16.15169,21.7910116 16.6855469,22.5917969 C17.2194037,23.3925821 17.9876252,23.7929688 18.9902344,23.7929688 C19.9733122,23.7929688 20.728513,23.4072304 21.2558594,22.6357422 C21.7832058,21.864254 22.0501302,20.7395907 22.0566406,19.2617188 L22.0566406,18.5683594 Z" id="Q"></path>
            </g>
        </g>
    </g>
</svg>