<?xml version="1.0" encoding="UTF-8"?>
<svg width="59px" height="51px" viewBox="0 0 59 51" version="1.1" xmlns="http://www.w3.org/2000/svg" xmlns:xlink="http://www.w3.org/1999/xlink">
    <title>icon_cloud copy 2</title>
    <g id="Symbols" stroke="none" stroke-width="1" fill="none" fill-rule="evenodd">
        <g id="CV_orange-Copy" transform="translate(-50.000000, -24.000000)" fill="#FFFFFF">
            <g id="Group-3" transform="translate(50.000000, 20.000000)">
                <g id="icon_cloud" transform="translate(0.000000, 4.500000)">
                    <path d="M35.1277288,40.23 L30.1997288,45.336 L30.1997288,23.418 C30.1997288,22.634 29.5657288,22 28.7837288,22 C27.9997288,22 27.3657288,22.634 27.3657288,23.418 L27.3657288,45.336 L22.4377288,40.23 C21.8937288,39.666 20.9977288,39.65 20.4337288,40.194 C19.8697288,40.738 19.8537288,41.636 20.3977288,42.198 L27.7637288,49.828 C27.7657288,49.832 27.7697288,49.832 27.7737288,49.836 C27.8977288,49.962 28.0477288,50.064 28.2137288,50.138 C28.2197288,50.14 28.2237288,50.146 28.2297288,50.148 C28.3997288,50.22 28.5857288,50.262 28.7837288,50.262 C28.9797288,50.262 29.1657288,50.22 29.3377288,50.148 C29.3417288,50.146 29.3437288,50.144 29.3477288,50.142 C29.5157288,50.068 29.6657288,49.964 29.7917288,49.836 C29.7957288,49.832 29.7997288,49.832 29.8017288,49.828 L37.1677288,42.198 C37.7117288,41.636 37.6957288,40.738 37.1317288,40.194 C36.5697288,39.652 35.6717288,39.668 35.1277288,40.23" id="Fill-1"></path>
                    <path d="M54.6545867,14.8300288 C52.1745867,12.5820288 48.8785867,11.3780288 45.4645867,11.4260288 C43.6005867,6.86602877 38.8905867,2.93202877 31.8865867,3.54202877 C27.3705867,-0.00797122795 21.5645867,-0.959971228 16.2325867,1.00602877 C10.7225867,3.03802877 6.78858674,7.74802877 5.60658674,13.6800288 C0.13058674,17.3660288 -0.67941326,22.7620288 0.42858674,26.6660288 C1.92858674,31.9380288 6.68458674,35.4800288 12.2665867,35.4800288 L18.1385867,35.4800288 C18.9205867,35.4800288 19.5545867,34.8460288 19.5545867,34.0640288 C19.5545867,33.2800288 18.9205867,32.6460288 18.1385867,32.6460288 L12.2665867,32.6460288 C7.29858674,32.6460288 4.11258674,29.2540288 3.15458674,25.8920288 C2.03858674,21.9620288 3.71258674,18.1680288 7.63458674,15.7420288 C7.98458674,15.5280288 8.22258674,15.1700288 8.28858674,14.7660288 C9.14458674,9.56202877 12.4805867,5.41202877 17.2125867,3.66602877 C21.7645867,1.98802877 26.7425867,2.89602877 30.5345867,6.09602877 C30.8365867,6.35002877 31.2225867,6.47002877 31.6245867,6.42002877 C38.2945867,5.59202877 41.9945867,9.61802877 43.1325867,13.3180288 C43.3285867,13.9600288 43.9485867,14.3760288 44.6245867,14.3120288 C47.6345867,14.0200288 50.5945867,14.9720288 52.7505867,16.9300288 C54.6765867,18.6780288 55.7825867,21.0540288 55.7825867,23.4520288 C55.7825867,28.4360288 51.2045867,32.6460288 45.7865867,32.6460288 L38.4865867,32.6460288 C37.7025867,32.6460288 37.0705867,33.2800288 37.0705867,34.0640288 C37.0705867,34.8460288 37.7025867,35.4800288 38.4865867,35.4800288 L45.7865867,35.4800288 C52.7405867,35.4800288 58.6165867,29.9720288 58.6165867,23.4520288 C58.6165867,20.2560288 57.1725867,17.1140288 54.6545867,14.8300288" id="Fill-4"></path>
                </g>
            </g>
        </g>
    </g>
</svg>