<?xml version="1.0" encoding="UTF-8" standalone="no"?>
<svg width="53px" height="53px" viewBox="0 0 53 53" version="1.1" xmlns="http://www.w3.org/2000/svg" xmlns:xlink="http://www.w3.org/1999/xlink">
    <!-- Generator: Sketch 50.2 (55047) - http://www.bohemiancoding.com/sketch -->
    <title>mens</title>
    <desc>Created with Sketch.</desc>
    <defs>
        <circle id="path-1" cx="26.5" cy="26.5" r="26.5"></circle>
    </defs>
    <g id="Symbols" stroke="none" stroke-width="1" fill="none" fill-rule="evenodd">
        <g id="jirei_kiji-copy-3" transform="translate(-48.000000, -270.000000)">
            <g id="Group-53">
                <g id="Group" transform="translate(48.000000, 270.000000)">
                    <g id="mens">
                        <mask id="mask-2" fill="white">
                            <use xlink:href="#path-1"></use>
                        </mask>
                        <use id="Mask" fill="#FFC13C" xlink:href="#path-1"></use>
                        <g id="woman" mask="url(#mask-2)">
                            <g transform="translate(1.000000, 8.000000)" id="Group">
                                <g transform="translate(6.428571, 0.000000)">
                                    <path d="M35.7984231,45.2467742 C35.7984231,46.9483871 34.4119615,48.3327189 32.7078462,48.3327189 L4.72603846,48.3327189 C3.02192308,48.3327189 1.63546154,46.9483871 1.63546154,45.2467742 L1.63546154,42.9770737 C1.63546154,39.968318 4.56,38.5158986 7.94619231,36.8341014 C8.21607692,36.7 8.48723077,36.5654378 8.75838462,36.4291475 C15.3672692,40.4036866 22.0662692,40.4038018 28.6753846,36.4292627 C28.9464231,36.5654378 29.2173462,36.7 29.4872308,36.8341014 C32.8736538,38.5162442 35.7984231,39.968894 35.7984231,42.9770737 L35.7984231,45.2467742 Z M13.7055,33.3203917 C13.8795,33.165553 13.9789615,32.9440092 13.9789615,32.7111751 L13.9789615,29.6198157 C15.3572308,30.6258065 16.8291923,31.0570276 18.7173462,31.0570276 C20.6048077,31.0570276 22.0766538,30.6256912 23.4546923,29.6199309 L23.4546923,32.7111751 C23.4546923,32.9440092 23.5541538,33.1656682 23.7282692,33.3205069 C24.6932308,34.1798387 25.8021923,34.8895161 26.9581154,35.5300691 C21.4845,38.5003456 15.9493846,38.5002304 10.4757692,35.5300691 C11.6315769,34.8895161 12.7404231,34.1798387 13.7055,33.3203917 Z M6.79996154,27.4868664 L6.79996154,13.5315668 C6.79996154,6.97062212 12.1458462,1.63294931 18.7168846,1.63294931 C25.2879231,1.63294931 30.6338077,6.97062212 30.6338077,13.5315668 L30.6338077,27.4868664 C29.0404615,28.2452765 27.1120385,28.7004608 25.0900385,28.7974654 L25.0900385,28.0968894 C27.8697692,25.1329493 29.1796154,20.2559908 29.0927308,13.2054147 C29.0871923,12.7580645 28.7222308,12.3990783 28.2753462,12.3990783 C28.272,12.3990783 28.2684231,12.3990783 28.2650769,12.3991935 C27.8134615,12.4047235 27.4519615,12.7747696 27.4575,13.225576 C27.5411538,20.0123272 26.3102308,24.5798387 23.6944615,27.1889401 C23.6434615,27.2398618 23.5998462,27.2967742 23.5644231,27.3580645 C22.0961538,28.8603687 20.7597692,29.4243088 18.7173462,29.4243088 C16.6741154,29.4243088 15.3373846,28.8603687 13.8691154,27.3579493 C13.8336923,27.296659 13.7901923,27.2398618 13.7391923,27.1889401 C10.4402308,23.8980415 9.92584615,19.40553 9.83792308,14.2834101 C12.7539231,15.2829493 15.5246538,15.2440092 18.0890769,14.1644009 C20.3427692,13.215553 22.3812692,11.4904378 24.1478077,9.03698157 C24.4114615,8.67096774 24.3279231,8.16082949 23.9612308,7.89758065 C23.5945385,7.63421659 23.0838462,7.71774194 22.8200769,8.08387097 C20.2966154,11.5880184 15.9075,15.1703917 9.33023077,12.3368664 C9.07638462,12.2276498 8.78469231,12.2536866 8.55473077,12.4059908 C8.32442308,12.5582949 8.18676923,12.8163594 8.18861538,13.0921659 C8.22784615,18.7417051 8.57965385,24.1404378 12.3436154,28.0986175 L12.3436154,28.7974654 C10.3216154,28.7004608 8.39330769,28.2452765 6.79996154,27.4868664 Z M30.2155385,35.3721198 C28.4111538,34.4758065 26.5489615,33.5509217 25.0900385,32.3370968 L25.0900385,30.4320276 C27.5600769,30.3232719 29.9233846,29.7243088 31.8211154,28.7177419 C31.8534231,28.7014977 31.8843462,28.6830645 31.9138846,28.662788 C32.0131154,28.5949309 32.0935385,28.5081797 32.1523846,28.410023 C32.2119231,28.3114055 32.2511538,28.1993088 32.2643077,28.0793779 C32.2682308,28.0441244 32.2699615,28.0086406 32.2692692,27.9729263 L32.2692692,13.5315668 C32.2692692,6.0702765 26.1896538,0 18.7168846,0 C11.2441154,0 5.1645,6.0702765 5.1645,13.5315668 L5.1645,27.9729263 C5.16380769,28.0085253 5.16553846,28.0441244 5.16946154,28.0793779 C5.18261538,28.1993088 5.22184615,28.3114055 5.28126923,28.410023 C5.34023077,28.5081797 5.42065385,28.5949309 5.51988462,28.662788 C5.54942308,28.6830645 5.58034615,28.7014977 5.61265385,28.7177419 C7.51038462,29.7243088 9.87357692,30.3232719 12.3436154,30.4319124 L12.3436154,32.3370968 C10.8846923,33.5511521 9.02226923,34.4759217 7.21788462,35.3721198 C3.66934615,37.134447 0,38.9567972 0,42.9770737 L0,45.2467742 C0,47.8487327 2.12007692,49.965553 4.72603846,49.965553 L32.7078462,49.965553 C35.3138077,49.965553 37.4338846,47.8487327 37.4338846,45.2467742 L37.4338846,42.9770737 C37.4338846,38.9574885 33.7643077,37.1347926 30.2155385,35.3721198 Z" id="Fill-1" fill="#FFFFFF"></path>
                                    <path d="M11.7712615,11.3301843 C12.2724923,11.3746544 12.7506462,11.3973502 13.2095308,11.3973502 C16.7160692,11.3973502 19.0575692,10.0676267 21.2771077,6.92476959 C21.5373,6.55633641 21.4490308,6.0468894 21.0800308,5.78709677 C20.7111462,5.52730415 20.2009154,5.61543779 19.9404923,5.98387097 C17.7937615,9.02373272 15.6185308,10.0317972 11.9159538,9.70368664 C11.4642231,9.66440092 11.0690308,9.99562212 11.0291077,10.4448157 C10.9891846,10.893894 11.3214923,11.2903226 11.7712615,11.3301843" id="Fill-3" fill="#FFFFFF"></path>
                                </g>
                            </g>
                        </g>
                    </g>
                </g>
            </g>
        </g>
    </g>
</svg>