<?xml version="1.0" encoding="UTF-8"?>
<svg width="53px" height="53px" viewBox="0 0 53 53" version="1.1" xmlns="http://www.w3.org/2000/svg" xmlns:xlink="http://www.w3.org/1999/xlink">
    <title>mens</title>
    <defs>
        <circle id="path-1" cx="26.5" cy="26.5" r="26.5"></circle>
    </defs>
    <g id="Symbols" stroke="none" stroke-width="1" fill="none" fill-rule="evenodd">
        <g id="jirei_kiji-copy-3" transform="translate(-48.000000, -270.000000)">
            <g id="mens" transform="translate(48.000000, 270.000000)">
                <mask id="mask-2" fill="white">
                    <use xlink:href="#path-1"></use>
                </mask>
                <use id="Mask" fill="#FFC13C" xlink:href="#path-1"></use>
                <g id="Group" mask="url(#mask-2)">
                    <g transform="translate(1.000000, 8.000000)" id="mens">
                        <path d="M42.0540802,45.9762392 C42.0540802,47.490879 40.8217781,48.7231811 39.3071383,48.7231811 L10.8094751,48.7231811 C9.29483531,48.7231811 8.0626485,47.490879 8.0626485,45.9762392 L8.0626485,42.412374 C8.0626485,39.801586 10.9818291,38.4956156 14.3619269,36.9832815 C15.3193849,36.5549905 16.2913691,36.1200129 17.2162009,35.6403039 L24.3714848,46.7529273 C24.5218189,46.9864986 24.7805228,47.1276098 25.0583643,47.1276098 C25.3360906,47.1276098 25.5947945,46.9864986 25.7452439,46.7529273 L32.9006431,35.6403039 C33.825129,36.1198976 34.7971132,36.5547599 35.7543407,36.9830509 C39.134669,38.4956156 42.0540802,39.8019319 42.0540802,42.412374 L42.0540802,45.9762392 Z M29.1349105,38.4702524 L25.0583643,44.8015806 L20.9817029,38.4702524 L29.1349105,38.4702524 Z M20.2423678,33.6466469 C20.4161052,33.491586 20.5154825,33.2697739 20.5154825,33.0368943 L20.5154825,31.7279264 C21.889357,32.6152899 23.4480364,33.0887734 25.0587102,33.0887734 C26.6689229,33.0887734 28.227487,32.6151747 29.6011309,31.7280417 L29.6011309,33.0368943 C29.6011309,33.2698892 29.7005082,33.491586 29.8743609,33.6466469 C30.3594884,34.0792035 30.9000688,34.4708332 31.47708,34.8329495 L30.1870191,36.8362906 L19.9295943,36.8362906 L18.6396487,34.8329495 C19.2166599,34.4708332 19.7572403,34.0793188 20.2423678,33.6466469 L20.2423678,33.6466469 Z M17.374951,24.0879762 C17.2686564,23.7462657 16.9525397,23.5135014 16.5948043,23.5135014 L15.9886256,23.5135014 C14.8488989,23.5135014 14.1607511,22.1659124 13.9177263,21.0118901 C13.5799355,19.4077876 13.9500066,17.8715892 14.7600127,17.5146608 C14.7752305,17.5078589 14.7901025,17.5008264 14.804744,17.4933327 C14.9859751,17.5641189 15.2126292,17.6732956 15.3713793,17.7498462 C16.0847749,18.0935165 16.8933975,18.4827252 17.5930739,18.0461336 C18.017791,17.7810889 18.2368362,17.3035704 18.2443298,16.6268361 L18.2511317,16.4648579 C18.2921739,15.4947184 18.3344842,14.4914914 18.4315558,13.8027672 C18.7069763,11.846809 22.0212452,10.8623739 25.1526691,10.8986892 C28.6653468,10.9406537 31.4550602,12.1807953 31.6419403,13.7835143 C31.7074233,14.345077 31.7726757,15.3958022 31.8357376,16.4119412 L31.8515319,16.6659184 C31.9043334,17.3811585 32.1605009,17.8712433 32.612541,18.1225688 C33.334122,18.5236521 34.1076973,18.1186491 34.790196,17.7612596 C34.9375327,17.6841326 35.1467785,17.5744947 35.3164809,17.501057 C36.1168028,17.8190183 36.5147733,19.2273636 36.2433879,20.8042583 C36.0113153,22.1527697 35.2672534,23.5135014 34.1279878,23.5135014 L33.5219244,23.5135014 C33.164189,23.5135014 32.8480722,23.7462657 32.7417777,24.0877456 C32.0083222,26.4450177 31.0321877,28.2439551 29.8406971,29.434408 C29.8006926,29.4742973 29.7651842,29.517991 29.7347485,29.564567 C28.4009939,30.787992 26.7611524,31.4549269 25.0587102,31.4549269 C23.3558068,31.4549269 21.7156195,30.7878767 20.3817497,29.5643364 C20.3513139,29.5178758 20.3159208,29.474182 20.2760315,29.434408 C19.083734,28.2432634 18.1077148,26.4444412 17.374951,24.0879762 L17.374951,24.0879762 Z M19.595608,5.32825492 L19.7747639,5.89431379 C19.9108025,6.32444936 20.3699904,6.56297803 20.800126,6.42682416 C21.2302615,6.29067028 21.4686749,5.83159769 21.332521,5.40134684 L20.9222148,4.10448406 C21.2039761,4.2374099 21.5266643,4.33298277 21.9121838,4.37782939 C22.1753839,4.40826514 22.4373158,4.30934895 22.6143965,4.112093 C22.7915925,3.91472176 22.8619176,3.64379745 22.8031212,3.38520885 C22.7366007,3.0926106 22.7121598,2.7553963 22.7278389,2.41622212 C24.3673344,3.24582694 25.8560347,3.85281267 27.1954383,4.39904219 C29.7647231,5.44653932 31.6209581,6.20351336 32.853606,7.79712472 C34.1120782,9.42416929 34.6999263,11.9602514 34.7384322,15.9723521 C34.4996729,16.0689626 34.2641417,16.1923196 34.0321844,16.3137168 C33.8787375,16.3940718 33.6578477,16.5097046 33.483995,16.5829118 C33.483188,16.5739194 33.482381,16.5645811 33.4818045,16.554897 L33.4665867,16.3107193 C33.3991438,15.2251775 33.3355054,14.1997002 33.2649498,13.5942132 C32.9237005,10.6661555 28.9544864,9.31003522 25.1721526,9.26484274 C25.1070154,9.26403573 25.0424547,9.26368987 24.9772023,9.26368987 C21.1839162,9.26368987 17.2345315,10.5851088 16.8135036,13.574845 C16.7053645,14.3427713 16.6632847,15.3400033 16.6186687,16.3959164 L16.6133655,16.5206568 C16.4383599,16.4499859 16.22946,16.3493404 16.080394,16.2775167 C15.8464768,16.1649966 15.6088704,16.0505167 15.3703417,15.9607082 C15.3135052,9.81868119 15.5829308,6.81384241 19.595608,5.32825492 L19.595608,5.32825492 Z M36.4216215,35.4915838 C34.5514368,34.6547159 32.6216487,33.791332 31.2350927,32.6600213 L31.2350927,30.3842571 C31.2769418,30.3412551 31.3185604,30.2976766 31.3597179,30.2537523 C31.4217422,30.1876929 31.4706239,30.1140245 31.5064781,30.0360905 C32.5552434,28.8041343 33.430156,27.1649846 34.1153063,25.1474632 L34.1279878,25.1474632 C35.9662381,25.1474632 37.4286529,23.5514308 37.8537158,21.0812928 C38.1625696,19.2866211 37.8046036,17.1252215 36.374008,16.213763 C36.3549856,11.6734175 35.6633793,8.75907894 34.1460879,6.79735638 C32.6447061,4.85627019 30.5122436,3.98677609 27.8123387,2.88590111 C26.2450128,2.24686561 24.4685564,1.52251777 22.5090243,0.456459447 C22.2948211,0.339904352 22.0398064,0.325262911 21.8136134,0.416109019 C21.5873052,0.507300987 21.4135678,0.694642263 21.3398994,0.927060732 C21.2093946,1.33817396 21.1290396,1.78537199 21.1002179,2.23429933 C21.0119081,2.14702712 20.9167963,2.04580519 20.8101559,1.92867366 C20.6295013,1.73003426 20.3631885,1.63319323 20.0965298,1.6688169 C19.8303322,1.70478642 19.5988361,1.8691856 19.4773236,2.10863657 C19.2333765,2.58926782 19.1357284,3.15025407 19.1872617,3.73902446 C13.7340742,5.68091766 13.6693982,10.1349133 13.7385704,16.212956 C12.2258904,17.1747949 11.9266056,19.486298 12.3188117,21.3486433 C12.8048615,23.6563419 14.2452565,25.1474632 15.9886256,25.1474632 L16.0013071,25.1474632 C16.6859963,27.1648693 17.5609088,28.8037885 18.6103658,30.0363211 C18.6462201,30.1142551 18.6949865,30.1878082 18.7568955,30.2538676 C18.7981683,30.2977919 18.8396716,30.3411398 18.8815207,30.3842571 L18.8815207,32.6600213 C17.4949647,33.7914473 15.5649461,34.6549465 13.694646,35.4918144 C10.1224802,37.0900372 6.42857143,38.7425602 6.42857143,42.412374 L6.42857143,45.9762392 C6.42857143,48.3918464 8.39386788,50.3571429 10.8094751,50.3571429 L39.3071383,50.3571429 C41.7227455,50.3571429 43.688042,48.3918464 43.688042,45.9762392 L43.688042,42.412374 C43.688042,38.742906 39.9940179,37.0900372 36.4216215,35.4915838 L36.4216215,35.4915838 Z" id="Fill-1" fill="#FFFFFF"></path>
                    </g>
                </g>
            </g>
        </g>
    </g>
</svg>