<?xml version="1.0" encoding="UTF-8"?>
<svg width="40px" height="34px" viewBox="0 0 40 34" version="1.1" xmlns="http://www.w3.org/2000/svg" xmlns:xlink="http://www.w3.org/1999/xlink">
    <title>icon_cloud</title>
    <g id="Page-1" stroke="none" stroke-width="1" fill="none" fill-rule="evenodd">
        <g id="PC-1200px" transform="translate(-653.000000, -698.000000)" fill="#231F20">
            <g id="02" transform="translate(0.000000, 607.000000)">
                <g id="Group" transform="translate(653.000000, 88.000000)">
                    <g id="icon_cloud" transform="translate(0.000000, 3.000000)">
                        <path d="M23.4184858,26.82 L20.1331525,30.224 L20.1331525,15.612 C20.1331525,15.0893333 19.7104858,14.6666667 19.1891525,14.6666667 C18.6664858,14.6666667 18.2438192,15.0893333 18.2438192,15.612 L18.2438192,30.224 L14.9584858,26.82 C14.5958192,26.444 13.9984858,26.4333333 13.6224858,26.796 C13.2464858,27.1586667 13.2358192,27.7573333 13.5984858,28.132 L18.5091525,33.2186667 C18.5104858,33.2213333 18.5131525,33.2213333 18.5158192,33.224 C18.5984858,33.308 18.6984858,33.376 18.8091525,33.4253333 C18.8131525,33.4266667 18.8158192,33.4306667 18.8198192,33.432 C18.9331525,33.48 19.0571525,33.508 19.1891525,33.508 C19.3198192,33.508 19.4438192,33.48 19.5584858,33.432 C19.5611525,33.4306667 19.5624858,33.4293333 19.5651525,33.428 C19.6771525,33.3786667 19.7771525,33.3093333 19.8611525,33.224 C19.8638192,33.2213333 19.8664858,33.2213333 19.8678192,33.2186667 L24.7784858,28.132 C25.1411525,27.7573333 25.1304858,27.1586667 24.7544858,26.796 C24.3798192,26.4346667 23.7811525,26.4453333 23.4184858,26.82" id="Fill-1"></path>
                        <path d="M36.4363912,9.88668585 C34.7830578,8.38801918 32.5857245,7.58535251 30.3097245,7.61735251 C29.0670578,4.57735251 25.9270578,1.95468585 21.2577245,2.36135251 C18.2470578,-0.00531415196 14.3763912,-0.639980819 10.8217245,0.670685848 C7.14839116,2.02535251 4.52572449,5.16535251 3.73772449,9.12001918 C0.0870578266,11.5773525 -0.452942173,15.1746858 0.285724493,17.7773525 C1.28572449,21.2920192 4.45639116,23.6533525 8.17772449,23.6533525 L12.0923912,23.6533525 C12.6137245,23.6533525 13.0363912,23.2306858 13.0363912,22.7093525 C13.0363912,22.1866858 12.6137245,21.7640192 12.0923912,21.7640192 L8.17772449,21.7640192 C4.86572449,21.7640192 2.74172449,19.5026858 2.10305783,17.2613525 C1.35905783,14.6413525 2.47505783,12.1120192 5.08972449,10.4946858 C5.32305783,10.3520192 5.48172449,10.1133525 5.52572449,9.84401918 C6.09639116,6.37468585 8.32039116,3.60801918 11.4750578,2.44401918 C14.5097245,1.32535251 17.8283912,1.93068585 20.3563912,4.06401918 C20.5577245,4.23335251 20.8150578,4.31335251 21.0830578,4.28001918 C25.5297245,3.72801918 27.9963912,6.41201918 28.7550578,8.87868585 C28.8857245,9.30668585 29.2990578,9.58401918 29.7497245,9.54135251 C31.7563912,9.34668585 33.7297245,9.98135251 35.1670578,11.2866858 C36.4510578,12.4520192 37.1883912,14.0360192 37.1883912,15.6346858 C37.1883912,18.9573525 34.1363912,21.7640192 30.5243912,21.7640192 L25.6577245,21.7640192 C25.1350578,21.7640192 24.7137245,22.1866858 24.7137245,22.7093525 C24.7137245,23.2306858 25.1350578,23.6533525 25.6577245,23.6533525 L30.5243912,23.6533525 C35.1603912,23.6533525 39.0777245,19.9813525 39.0777245,15.6346858 C39.0777245,13.5040192 38.1150578,11.4093525 36.4363912,9.88668585" id="Fill-4"></path>
                    </g>
                </g>
            </g>
        </g>
    </g>
</svg>