<?xml version="1.0" encoding="UTF-8"?>
<svg width="372px" height="96px" viewBox="0 0 372 96" version="1.1" xmlns="http://www.w3.org/2000/svg" xmlns:xlink="http://www.w3.org/1999/xlink">
    <title>logo</title>
    <g id="Page-1" stroke="none" stroke-width="1" fill="none" fill-rule="evenodd">
        <g id="PC-幅広-2000px" transform="translate(-971.000000, -120.000000)" fill="#F8741A">
            <g id="メインビジュアル" transform="translate(-1.000000, 80.000000)">
                <g id="logo" transform="translate(972.000000, 40.000000)">
                    <path d="M57.8131417,11.9726396 C56.7967146,11.7005341 55.2286728,11.4480652 53.1090162,11.2096223 C50.9893597,10.9711793 49.0153071,10.8533605 47.1868583,10.8533605 C41.9311182,10.8533605 37.2101923,11.5742997 33.0240806,13.0189832 C28.837969,14.4608615 25.237073,16.5675748 22.2185925,19.3335127 C19.200112,22.1022557 16.8452492,25.4713138 15.151204,29.4462975 C13.4543588,33.4212812 12.6087362,37.544941 12.6087362,41.8256927 C12.6087362,45.9016639 13.4039574,49.4839181 14.9971999,52.5752603 C16.5904424,55.6637974 18.8445025,58.0342005 21.7621803,59.6808592 C24.6770581,61.327518 28.0819489,62.1522499 31.9824529,62.1522499 C35.4713459,62.1522499 39.2094456,61.4116743 43.1939518,59.9361334 C47.1784581,58.4577873 51.2189658,56.3622949 55.3210752,53.6440457 L53.4394251,67.0922261 C45.6776181,71.0335472 38.0838156,73 30.6608176,73 C24.7274594,73 19.424118,71.709603 14.7451932,69.1288091 C10.0662684,66.5508204 6.43737166,62.8816047 3.86130297,58.1267725 C1.28803435,53.3719402 0,48.005572 0,42.0276678 C0,33.8785305 1.98805301,26.5933981 5.97255927,20.1750759 C9.95706552,13.7567536 15.5824155,8.78872536 22.8542094,5.27379626 C30.1260034,1.75886716 38.3722233,0 47.5928691,0 C49.424118,0 51.599776,0.120624063 54.1282434,0.359066979 C56.6511107,0.594704684 58.6083629,0.849978865 60,1.12208431 L57.8131417,11.9726396 Z" id="Fill-1"></path>
                    <path d="M94.6246864,45.0170355 C94.6246864,41.522214 93.8381836,38.6697606 92.2679378,36.4596751 C90.6976919,34.2495897 88.578274,33.1459619 85.9041646,33.1459619 C83.4977421,33.1459619 81.3452082,34.045843 79.4410437,35.8427755 C77.5341194,37.6425378 76.032865,40.1101364 74.9290015,43.2455713 C73.825138,46.3781765 73.2759659,49.5730375 73.2759659,52.8273247 C73.2759659,55.054389 73.6595585,57.0663875 74.4267436,58.8661498 C75.1966884,60.665912 76.2398394,62.0525214 77.5589563,63.0288075 C78.8780733,64.0050937 80.3241345,64.4918218 81.8943803,64.4918218 C84.2676869,64.4918218 86.4312594,63.6372177 88.3850978,61.9251797 C90.3389363,60.2103118 91.8677873,57.8559058 92.9688911,54.8591318 C94.0727546,51.859528 94.6246864,48.5797725 94.6246864,45.0170355 M106,45.5829985 C106,50.8238157 104.965128,55.6288415 102.892624,59.9952459 C100.82288,64.3644802 97.9390366,67.791386 94.2493728,70.2731337 C90.5569493,72.7577112 86.5057702,74 82.0958354,74 C78.1853989,74 74.6944305,73.0746505 71.6229303,71.2239516 C68.5459107,69.3760824 66.1753638,66.7641632 64.5057702,63.388194 C62.833417,60.0150546 62,56.2202728 62,52.0066784 C62,46.9016922 63.0762669,42.1730715 65.2315605,37.8236459 C67.386854,33.4713906 70.3341696,30.0812723 74.0762669,27.6476314 C77.8183643,25.2139906 81.8612644,24 86.2049674,24 C90.0464124,24 93.471149,24.8913917 96.4791771,26.6713453 C99.4844456,28.4512989 101.821877,30.9953025 103.49423,34.3005263 C105.163823,37.60858 106,41.3665742 106,45.5829985" id="Fill-3"></path>
                    <path d="M180.551462,72 L169.480227,72 L173.525112,42.7388401 C173.69214,41.2766257 173.775655,40.1349736 173.775655,39.3195079 C173.775655,37.0727592 173.372002,35.3855888 172.564695,34.2636204 C171.754605,33.1388401 170.657781,32.5764499 169.277009,32.5764499 C167.492583,32.5764499 165.485452,33.3272408 163.261183,34.8260105 C161.036914,36.3219684 158.662319,38.6727592 156.134615,41.8727592 L151.886512,72 L140.715059,72 L144.656942,43.4558875 C144.860161,42.1258348 144.960378,40.7817223 144.960378,39.4207381 C144.960378,37.0727592 144.548374,35.3434095 143.724364,34.2383128 C142.897571,33.1332162 141.64207,32.5764499 139.955078,32.5764499 C138.777524,32.5764499 137.480265,32.9785589 136.063303,33.7771529 C134.649125,34.5785589 133.157,35.7202109 131.589711,37.199297 C130.022423,38.6811951 128.597109,40.2390158 127.316554,41.8727592 L123.121344,72 L112,72 L118.622698,24.8154657 L129.744041,24.8154657 L128.683408,32.0674868 L128.883842,32.2727592 C134.008847,26.7557118 139.147771,24 144.303398,24 C147.371163,24 149.882165,24.8604569 151.836403,26.5785589 C153.790642,28.2966608 155.021088,30.6727592 155.527743,33.7012302 C158.862754,30.1272408 161.897113,27.6161687 164.628036,26.170826 C167.356176,24.7226714 170.087099,24 172.818022,24 C176.556687,24 179.521451,25.2344464 181.712314,27.7005272 C183.90596,30.16942 185,33.6 185,37.9922671 C185,39.3195079 184.899783,40.6467487 184.696564,41.9739895 L180.551462,72 Z" id="Fill-5"></path>
                    <path d="M231.559021,45.7152311 C231.559021,41.7491085 230.523004,38.5884309 228.456572,36.2331985 C226.390139,33.8807434 223.609696,32.7031271 220.118041,32.7031271 C218.863621,32.7031271 217.760404,32.7975586 216.811189,32.9808668 C215.864774,33.164175 214.811958,33.5446784 213.65834,34.1140447 L209.491874,63.8738513 C209.760679,63.9738376 210.337488,64.0654917 211.219501,64.151591 C212.101515,64.2349129 212.949929,64.2765739 213.761941,64.2765739 C217.253596,64.2765739 220.311244,63.5211219 222.940485,62.0074407 C225.566927,60.4937594 227.658559,58.2496228 229.220984,55.2722535 C230.777808,52.2976615 231.559021,49.1119874 231.559021,45.7152311 M243,45.5152585 C243,48.9092374 242.37279,52.2726649 241.11837,55.6027637 C239.863951,58.930085 238.015922,61.9241188 235.577084,64.5793101 C233.135445,67.2372788 230.125398,69.386984 226.549742,71.0339802 C222.974086,72.6809765 218.846821,73.5058634 214.167948,73.5058634 C213.896343,73.5058634 212.837927,73.4558703 210.989898,73.355884 C209.141869,73.2558977 208.184254,73.153134 208.117053,73.0531477 L204.913803,96 L193.626826,96 L201.660152,39.8132629 C200.134128,40.9242216 198.871308,42.0268482 197.871692,43.1183651 C196.872076,44.209882 196.048864,45.1958579 195.404853,46.0679605 C194.760843,46.9428405 194.234435,47.6482993 193.828429,48.1871143 C193.422422,48.7259292 193.016416,48.9953367 192.60761,48.9953367 C192.201603,48.9953367 192,48.7259292 192,48.1871143 C192,47.1455905 192.481608,45.6319092 193.447623,43.6460705 C194.413638,41.6657866 195.701658,39.6466191 197.311683,37.5969003 C198.921709,35.5444041 200.727737,33.730764 202.726968,32.1476478 L205.118206,15 L216.354782,15 L214.778357,25.6402071 C217.082793,24.834762 219.863237,24.4320395 223.116888,24.4320395 C226.880147,24.4320395 230.287801,25.3235839 233.339848,27.1038952 C236.389096,28.886984 238.760734,31.3921959 240.45756,34.6195309 C242.151587,37.846866 243,41.479701 243,45.5152585" id="Fill-7"></path>
                    <path d="M282.7257,33.5363128 C281.711918,33.4329609 280.73165,33.3826816 279.784895,33.3826816 C276.978143,33.3826816 274.425536,33.8072626 272.127072,34.650838 C269.825815,35.4972067 267.831765,36.773743 266.142129,38.4832402 C264.452492,40.1899441 263.089612,42.3715084 262.059074,45.0251397 C261.025742,47.6787709 260.511869,50.3938547 260.511869,53.1675978 C260.511869,56.5139665 261.249165,59.2011173 262.718171,61.2318436 C264.18997,63.2625698 266.158885,64.2765363 268.627709,64.2765363 C270.216805,64.2765363 271.956712,63.7513966 273.850222,62.7039106 C275.743731,61.6536313 277.536701,60.2513966 279.226337,58.4944134 L282.7257,33.5363128 Z M288.456499,72.0865922 L277.249044,72.0865922 L277.958412,67.2178771 L277.908142,67.1675978 L277.757331,67.1145251 C273.562565,71.0391061 269.27005,73 264.874203,73 C261.933398,73 259.243944,72.1536313 256.808633,70.4636872 C254.376116,68.773743 252.465849,66.4497207 251.077834,63.4888268 C249.692611,60.5307263 249,57.2765363 249,53.726257 C249,47.773743 250.368466,42.4972067 253.10819,37.8994413 C255.845122,33.2988827 259.685204,29.8324022 264.620059,27.5 C269.557707,25.1648045 275.285714,24 281.812458,24 C286.241819,24 290.637666,24.5055866 295,25.5195531 L288.456499,72.0865922 Z" id="Fill-9"></path>
                    <path d="M332,38.7260662 C328.638157,36.7013385 326.030958,35.3543557 324.183852,34.685118 C322.334021,34.0130445 320.620408,33.6812613 319.037563,33.6812613 C317.125072,33.6812613 315.730207,34.0045372 314.858417,34.6567604 C313.983902,35.3089837 313.548006,36.4602995 313.548006,38.1078721 C313.548006,38.7941243 313.899447,39.5427632 314.610501,40.3481171 C315.318831,41.1563067 316.397672,42.0750907 317.852473,43.1044691 L320.473293,44.956216 C323.440106,47.1539247 325.494262,48.9149274 326.630315,50.2363884 C327.769091,51.5578494 328.676298,52.9842332 329.351936,54.5098684 C330.027574,56.0383394 330.365393,57.7114338 330.365393,59.5319873 C330.365393,62.3110254 329.714274,64.8008167 328.414761,66.9985254 C327.109799,69.1962341 325.262693,70.9118648 322.870717,72.1482532 C320.478742,73.3846416 317.817056,74 314.882936,74 C312.079584,74 309.32527,73.6341878 306.619995,72.8940563 C303.91472,72.1567604 301.375629,70.8267922 299,68.9041515 L300.781722,59.1179673 C303.28812,60.8024047 305.639231,62.1153584 307.832329,63.0596642 C310.025427,64.0039701 312.112276,64.4747051 314.090151,64.4747051 C315.672996,64.4747051 316.945265,64.0890426 317.898786,63.314882 C318.857756,62.5435572 319.337241,61.5567151 319.337241,60.3543557 C319.337241,59.3249773 318.895897,58.2530626 318.024106,57.1357759 C317.149591,56.0213249 315.836457,54.8104583 314.090151,53.5060118 C310.131677,50.5539927 307.543548,48.4158348 306.323041,47.0943739 C305.102534,45.7729129 304.178981,44.4004083 303.552382,42.9768603 C302.925782,41.5504764 302.612482,40.0645417 302.612482,38.521892 C302.612482,35.7059891 303.263601,33.190676 304.565838,30.9759528 C305.8708,28.7612296 307.715182,27.0455989 310.109882,25.826225 C312.499133,24.6068512 315.212582,24 318.244778,24 C320.718484,24 323.088665,24.4281987 325.347148,25.2845962 C327.60563,26.1438294 329.823248,27.2611162 332,28.6336207 L332,38.7260662 Z" id="Fill-11"></path>
                    <path d="M372,38.7260662 C368.63788,36.7013385 366.030466,35.3543557 364.183207,34.685118 C362.333223,34.0130445 360.619468,33.6812613 359.036493,33.6812613 C357.123844,33.6812613 355.728864,34.0045372 354.857001,34.6567604 C353.982414,35.3089837 353.546483,36.4602995 353.546483,38.1078721 C353.546483,38.7941243 353.897952,39.5427632 354.609065,40.3481171 C355.317454,41.1563067 356.396384,42.0750907 357.851304,43.1044691 L360.472341,44.956216 C363.439399,47.1539247 365.493725,48.9149274 366.629871,50.2363884 C367.768742,51.5578494 368.676024,52.9842332 369.351717,54.5098684 C370.027411,56.0383394 370.365258,57.7114338 370.365258,59.5319873 C370.365258,62.3110254 369.714085,64.8008167 368.414465,66.9985254 C367.109396,69.1962341 365.262137,70.9118648 362.869964,72.1482532 C360.477791,73.3846416 357.815885,74 354.881522,74 C352.077939,74 349.323398,73.6341878 346.6179,72.8940563 C343.912401,72.1567604 341.373101,70.8267922 339,68.9041515 L340.779145,59.1179673 C343.28575,60.8024047 345.63433,62.1153584 347.830334,63.0596642 C350.023613,64.0039701 352.110634,64.4747051 354.088672,64.4747051 C355.671648,64.4747051 356.944022,64.0890426 357.897622,63.314882 C358.856671,62.5435572 359.336196,61.5567151 359.336196,60.3543557 C359.336196,59.3249773 358.894815,58.2530626 358.022952,57.1357759 C357.148365,56.0213249 355.835122,54.8104583 354.088672,53.5060118 C350.132596,50.5539927 347.538804,48.4158348 346.320921,47.0943739 C345.100314,45.7729129 344.176684,44.4004083 343.552758,42.9768603 C342.923382,41.5504764 342.610056,40.0645417 342.610056,38.521892 C342.610056,35.7059891 343.261229,33.190676 344.566298,30.9759528 C345.865918,28.7612296 347.713177,27.0455989 350.10535,25.826225 C352.497523,24.6068512 355.211196,24 358.243643,24 C360.717553,24 363.087929,24.4281987 365.346598,25.2845962 C367.605268,26.1438294 369.823068,27.2611162 372,28.6336207 L372,38.7260662 Z" id="Fill-13"></path>
                </g>
            </g>
        </g>
    </g>
</svg>