<?xml version="1.0" encoding="UTF-8"?>
<svg width="100px" height="26px" viewBox="0 0 100 26" version="1.1" xmlns="http://www.w3.org/2000/svg" xmlns:xlink="http://www.w3.org/1999/xlink">
    <title>logo_dummy copy</title>
    <g id="Page-1" stroke="none" stroke-width="1" fill="none" fill-rule="evenodd">
        <g id="SP-320px" transform="translate(-16.000000, -14.000000)" fill="#FFFFFF">
            <g id="logo_dummy-copy" transform="translate(16.000000, 14.000000)">
                <path d="M15.4085821,3.17021714 C15.1376866,3.09816 14.7197761,3.03130286 14.1548507,2.96816 C13.5899254,2.90501714 13.063806,2.87381714 12.5764925,2.87381714 C11.1757463,2.87381714 9.91753731,3.06473143 8.80186567,3.44730286 C7.68619403,3.82913143 6.72649254,4.38701714 5.92201493,5.11947429 C5.11753731,5.85267429 4.48992537,6.74484571 4.03843284,7.79747429 C3.58619403,8.85010286 3.3608209,9.94210286 3.3608209,11.0757029 C3.3608209,12.1550743 3.57276119,13.1037029 3.99738806,13.9223314 C4.42201493,14.7402171 5.02276119,15.3679314 5.80037313,15.8039886 C6.57723881,16.2400457 7.48470149,16.4584457 8.52425373,16.4584457 C9.45410448,16.4584457 10.4503731,16.2623314 11.5123134,15.8715886 C12.5742537,15.4801029 13.6511194,14.9251886 14.744403,14.20536 L14.2429104,17.7666171 C12.1742537,18.8103314 10.1503731,19.3310743 8.17201493,19.3310743 C6.59067164,19.3310743 5.17723881,18.98936 3.93022388,18.3059314 C2.68320896,17.6232457 1.71604478,16.6515886 1.02947761,15.3924457 C0.343656716,14.1333029 0.000373134328,12.7122171 0.000373134328,11.1291886 C0.000373134328,8.97118857 0.530223881,7.04198857 1.59216418,5.34233143 C2.65410448,3.64267429 4.15335821,2.32707429 6.09141791,1.39627429 C8.02947761,0.465474286 10.2272388,-0.000297142857 12.6847015,-0.000297142857 C13.1727612,-0.000297142857 13.7526119,0.0316457143 14.4264925,0.0947885714 C15.0988806,0.157188571 15.6205224,0.224788571 15.9914179,0.296845714 L15.4085821,3.17021714 Z" id="Fill-1"></path>
                <path d="M25.3152239,11.81752 C25.3152239,10.9000914 25.1025373,10.1512914 24.6779104,9.57112 C24.2532836,8.99094857 23.6801493,8.70123429 22.9570149,8.70123429 C22.3062687,8.70123429 21.7241791,8.93746286 21.2092537,9.40917714 C20.6935821,9.88163429 20.2876119,10.5294057 19.9891045,11.3524914 C19.690597,12.1748343 19.5420896,13.01352 19.5420896,13.8678057 C19.5420896,14.4524343 19.6458209,14.9806057 19.8532836,15.4530629 C20.0614925,15.92552 20.3435821,16.28952 20.7002985,16.5458057 C21.0570149,16.8020914 21.4480597,16.9298629 21.8726866,16.9298629 C22.5144776,16.9298629 23.0995522,16.70552 23.6279104,16.2560914 C24.1562687,15.80592 24.5697015,15.1878629 24.8674627,14.4011771 C25.1659701,13.6137486 25.3152239,12.7527771 25.3152239,11.81752 M28.3913433,11.9660914 C28.3913433,13.3418629 28.1114925,14.6032343 27.5510448,15.7494629 C26.9913433,16.8964343 26.2114925,17.7960343 25.2137313,18.44752 C24.2152239,19.0997486 23.1197015,19.4258629 21.9271642,19.4258629 C20.8697015,19.4258629 19.9256716,19.1829486 19.0950746,18.69712 C18.2629851,18.2120343 17.6219403,17.5263771 17.1704478,16.6401486 C16.718209,15.7546629 16.4928358,14.7584914 16.4928358,13.6523771 C16.4928358,12.3122629 16.7838806,11.0709486 17.3667164,9.92917714 C17.9495522,8.78666286 18.7465672,7.89672 19.7585075,7.25786286 C20.7704478,6.61900571 21.8637313,6.30032 23.0383582,6.30032 C24.0771642,6.30032 25.0032836,6.53432 25.8167164,7.00157714 C26.629403,7.46883429 27.2614925,8.13666286 27.7137313,9.00432 C28.1652239,9.87272 28.3913433,10.8592343 28.3913433,11.9660914" id="Fill-3"></path>
                <path d="M48.4892537,19.08868 L45.5213433,19.08868 L46.6056716,11.3585086 C46.6504478,10.9722229 46.6728358,10.6706229 46.6728358,10.4551943 C46.6728358,9.86165143 46.5646269,9.41593714 46.348209,9.11953714 C46.1310448,8.82239429 45.8370149,8.67382286 45.4668657,8.67382286 C44.9885075,8.67382286 44.4504478,8.87216571 43.8541791,9.26810857 C43.2579104,9.66330857 42.6213433,10.2843371 41.9437313,11.1297086 L40.8049254,19.08868 L37.8101493,19.08868 L38.8668657,11.5479371 C38.9213433,11.1965657 38.948209,10.84148 38.948209,10.4819371 C38.948209,9.86165143 38.8377612,9.40479429 38.6168657,9.11285143 C38.3952239,8.82090857 38.0586567,8.67382286 37.6064179,8.67382286 C37.2907463,8.67382286 36.9429851,8.78005143 36.5631343,8.99102286 C36.1840299,9.20273714 35.7840299,9.50433714 35.3638806,9.89508 C34.9437313,10.2865657 34.5616418,10.6981086 34.2183582,11.1297086 L33.0937313,19.08868 L30.1123881,19.08868 L31.8877612,6.62353714 L34.8691045,6.62353714 L34.5847761,8.53936571 L34.6385075,8.59359429 C36.0123881,7.13610857 37.39,6.40810857 38.7720896,6.40810857 C39.5944776,6.40810857 40.2676119,6.63542286 40.7914925,7.08930857 C41.3153731,7.54319429 41.6452239,8.17090857 41.7810448,8.97096571 C42.6750746,8.02679429 43.4885075,7.36342286 44.220597,6.98159429 C44.9519403,6.59902286 45.6840299,6.40810857 46.4161194,6.40810857 C47.4183582,6.40810857 48.2131343,6.73422286 48.8004478,7.38570857 C49.3885075,8.03793714 49.681791,8.94422286 49.681791,10.1045657 C49.681791,10.4551943 49.6549254,10.8058229 49.6004478,11.1564514 L48.4892537,19.08868 Z" id="Fill-5"></path>
                <path d="M61.9873134,11.9926857 C61.9873134,10.9318857 61.711194,10.0865143 61.1604478,9.45657143 C60.6097015,8.82737143 59.8686567,8.5124 58.9380597,8.5124 C58.6037313,8.5124 58.3097015,8.53765714 58.0567164,8.58668571 C57.8044776,8.63571429 57.5238806,8.73748571 57.2164179,8.88977143 L56.1059701,16.8494857 C56.1776119,16.8762286 56.3313433,16.9007429 56.5664179,16.9237714 C56.8014925,16.9460571 57.0276119,16.9572 57.2440299,16.9572 C58.1746269,16.9572 58.9895522,16.7551429 59.6902985,16.3502857 C60.3902985,15.9454286 60.9477612,15.3452 61.3641791,14.5488571 C61.7791045,13.7532571 61.9873134,12.9012 61.9873134,11.9926857 M65.0365672,11.9392 C65.0365672,12.8469714 64.869403,13.7465714 64.5350746,14.6372571 C64.2007463,15.5272 63.708209,16.328 63.058209,17.0381714 C62.4074627,17.7490857 61.6052239,18.3240571 60.6522388,18.7645714 C59.6992537,19.2050857 58.5992537,19.4257143 57.3522388,19.4257143 C57.2798507,19.4257143 56.9977612,19.4123429 56.5052239,19.3856 C56.0126866,19.3588571 55.7574627,19.3313714 55.7395522,19.3046286 L54.8858209,25.4421143 L51.8776119,25.4421143 L54.0186567,10.4141143 C53.6119403,10.7112571 53.2753731,11.0061714 53.0089552,11.2981143 C52.7425373,11.5900571 52.5231343,11.8537714 52.3514925,12.0870286 C52.1798507,12.3210286 52.0395522,12.5097143 51.9313433,12.6538286 C51.8231343,12.7979429 51.7149254,12.87 51.6059701,12.87 C51.4977612,12.87 51.4440299,12.7979429 51.4440299,12.6538286 C51.4440299,12.3752571 51.5723881,11.9704 51.8298507,11.4392571 C52.0873134,10.9096 52.430597,10.3695429 52.8597015,9.82131429 C53.288806,9.27234286 53.7701493,8.78725714 54.3029851,8.36382857 L54.9402985,3.77742857 L57.9350746,3.77742857 L57.5149254,6.62331429 C58.1291045,6.40788571 58.8701493,6.30017143 59.7373134,6.30017143 C60.7402985,6.30017143 61.6485075,6.53862857 62.4619403,7.0148 C63.2746269,7.49171429 63.9067164,8.16177143 64.3589552,9.02497143 C64.8104478,9.88817143 65.0365672,10.8598286 65.0365672,11.9392" id="Fill-7"></path>
                <path d="M75.8916418,8.83628571 C75.6207463,8.8088 75.358806,8.79542857 75.1058209,8.79542857 C74.3558209,8.79542857 73.6737313,8.90834286 73.0595522,9.13268571 C72.4446269,9.35777143 71.911791,9.69725714 71.4602985,10.1518857 C71.008806,10.6057714 70.6446269,11.1859429 70.3692537,11.8916571 C70.0931343,12.5973714 69.9558209,13.3194286 69.9558209,14.0570857 C69.9558209,14.9470286 70.1528358,15.6616571 70.5453731,16.2017143 C70.9386567,16.7417714 71.4647761,17.0114286 72.1244776,17.0114286 C72.5491045,17.0114286 73.0140299,16.8717714 73.52,16.5932 C74.0259701,16.3138857 74.5050746,15.9409714 74.9565672,15.4737143 L75.8916418,8.83628571 Z M77.4229851,19.0884571 L74.428209,19.0884571 L74.6177612,17.7936571 L74.6043284,17.7802857 L74.5640299,17.7661714 C73.4431343,18.8098857 72.2961194,19.3313714 71.1214925,19.3313714 C70.3356716,19.3313714 69.6170149,19.1062857 68.9662687,18.6568571 C68.3162687,18.2074286 67.8058209,17.5893714 67.4349254,16.8019429 C67.0647761,16.0152571 66.8797015,15.1498286 66.8797015,14.2056571 C66.8797015,12.6226286 67.2453731,11.2193714 67.9774627,9.99662857 C68.708806,8.77314286 69.7349254,7.85125714 71.0535821,7.23097143 C72.3729851,6.60994286 73.9035821,6.30017143 75.6476119,6.30017143 C76.831194,6.30017143 78.0058209,6.43462857 79.1714925,6.70428571 L77.4229851,19.0884571 Z" id="Fill-9"></path>
                <path d="M89.5252985,10.1580514 C88.604403,9.62765143 87.8902239,9.27479429 87.3842537,9.09948 C86.8775373,8.92342286 86.4081343,8.83650857 85.9745522,8.83650857 C85.4506716,8.83650857 85.0685821,8.92119429 84.8297761,9.09205143 C84.5902239,9.26290857 84.4708209,9.56450857 84.4708209,9.99610857 C84.4708209,10.17588 84.5670896,10.3719943 84.7618657,10.5829657 C84.9558955,10.79468 85.2514179,11.0353657 85.6499254,11.3050229 L86.3678358,11.7901086 C87.1805224,12.3658229 87.743209,12.8271371 88.054403,13.1733086 C88.3663433,13.51948 88.6148507,13.8931371 88.7999254,14.2927943 C88.985,14.6931943 89.0775373,15.13148 89.0775373,15.6083943 C89.0775373,16.3363943 88.8991791,16.9886229 88.543209,17.5643371 C88.1857463,18.1400514 87.6797761,18.58948 87.0245522,18.9133657 C86.3693284,19.2372514 85.6402239,19.3984514 84.8364925,19.3984514 C84.0685821,19.3984514 83.3141045,19.3026229 82.5730597,19.1087371 C81.8320149,18.9155943 81.1364925,18.5671943 80.4857463,18.0635371 L80.973806,15.4999371 C81.6603731,15.9411943 82.304403,16.2851371 82.9051493,16.5325086 C83.5058955,16.77988 84.0775373,16.9031943 84.6193284,16.9031943 C85.0529104,16.9031943 85.4014179,16.8021657 85.6626119,16.5993657 C85.9252985,16.3973086 86.0566418,16.1387943 86.0566418,15.8238229 C86.0566418,15.5541657 85.9357463,15.2733657 85.6969403,14.98068 C85.4573881,14.6887371 85.0976866,14.3715371 84.6193284,14.0298229 C83.535,13.2565086 82.8260448,12.6963943 82.4917164,12.3502229 C82.1573881,12.0040514 81.904403,11.6445086 81.7327612,11.2715943 C81.5611194,10.8979371 81.4752985,10.50868 81.4752985,10.1045657 C81.4752985,9.36690857 81.6536567,8.70799429 82.0103731,8.12782286 C82.3678358,7.54765143 82.8730597,7.09822286 83.5290299,6.77879429 C84.1835075,6.45936571 84.926791,6.30039429 85.7573881,6.30039429 C86.435,6.30039429 87.0842537,6.41256571 87.7029104,6.63690857 C88.3215672,6.86199429 88.9290299,7.15468 89.5252985,7.51422286 L89.5252985,10.1580514 Z" id="Fill-11"></path>
                <path d="M99.7704478,10.1580514 C98.8495522,9.62765143 98.1353731,9.27479429 97.629403,9.09948 C97.1226866,8.92342286 96.6532836,8.83650857 96.2197015,8.83650857 C95.6958209,8.83650857 95.3137313,8.92119429 95.0749254,9.09205143 C94.8353731,9.26290857 94.7159701,9.56450857 94.7159701,9.99610857 C94.7159701,10.17588 94.8122388,10.3719943 95.0070149,10.5829657 C95.2010448,10.79468 95.4965672,11.0353657 95.8950746,11.3050229 L96.6129851,11.7901086 C97.4256716,12.3658229 97.9883582,12.8271371 98.2995522,13.1733086 C98.6114925,13.51948 98.86,13.8931371 99.0450746,14.2927943 C99.2301493,14.6931943 99.3226866,15.13148 99.3226866,15.6083943 C99.3226866,16.3363943 99.1443284,16.9886229 98.7883582,17.5643371 C98.4308955,18.1400514 97.9249254,18.58948 97.2697015,18.9133657 C96.6144776,19.2372514 95.8853731,19.3984514 95.0816418,19.3984514 C94.3137313,19.3984514 93.5592537,19.3026229 92.818209,19.1087371 C92.0771642,18.9155943 91.3816418,18.5671943 90.7316418,18.0635371 L91.2189552,15.4999371 C91.9055224,15.9411943 92.548806,16.2851371 93.1502985,16.5325086 C93.7510448,16.77988 94.3226866,16.9031943 94.8644776,16.9031943 C95.2980597,16.9031943 95.6465672,16.8021657 95.9077612,16.5993657 C96.1704478,16.3973086 96.301791,16.1387943 96.301791,15.8238229 C96.301791,15.5541657 96.1808955,15.2733657 95.9420896,14.98068 C95.7025373,14.6887371 95.3428358,14.3715371 94.8644776,14.0298229 C93.7808955,13.2565086 93.0704478,12.6963943 92.7368657,12.3502229 C92.4025373,12.0040514 92.1495522,11.6445086 91.9786567,11.2715943 C91.8062687,10.8979371 91.7204478,10.50868 91.7204478,10.1045657 C91.7204478,9.36690857 91.898806,8.70799429 92.2562687,8.12782286 C92.6122388,7.54765143 93.118209,7.09822286 93.7734328,6.77879429 C94.4286567,6.45936571 95.1719403,6.30039429 96.0025373,6.30039429 C96.6801493,6.30039429 97.329403,6.41256571 97.9480597,6.63690857 C98.5667164,6.86199429 99.1741791,7.15468 99.7704478,7.51422286 L99.7704478,10.1580514 Z" id="Fill-13"></path>
            </g>
        </g>
    </g>
</svg>