<?xml version="1.0" encoding="UTF-8"?>
<svg width="27px" height="27px" viewBox="0 0 27 27" version="1.1" xmlns="http://www.w3.org/2000/svg" xmlns:xlink="http://www.w3.org/1999/xlink">
    <title>tel</title>
    <g id="Page-1" stroke="none" stroke-width="1" fill="none" fill-rule="evenodd">
        <g id="SP-メニュー表示" transform="translate(-41.000000, -394.000000)" fill="#000000">
            <g id="電話番号" transform="translate(0.000000, 350.000000)">
                <g id="Group-6" transform="translate(41.000000, 40.000000)">
                    <g id="Fill-1" transform="translate(0.000000, 4.000000)">
                        <path d="M18.915194,15.841 L18.915194,15.842 L18.915194,15.841 Z M25.038194,21.895 C25.038194,21.895 25.037194,21.895 25.037194,21.896 L25.038194,21.895 Z M25.040194,22.028 L25.050194,22.028 L25.040194,22.028 Z M4.84119405,1.459 C4.65519405,1.64 4.46319405,1.821 4.27019405,2.004 C2.88819405,3.308 1.45919405,4.658 1.41819405,6.757 C1.36419405,9.523 3.65219405,13.227 8.41019405,18.08 C13.204194,22.969 16.882194,25.348 19.649194,25.348 C19.674194,25.348 19.698194,25.348 19.723194,25.347 C21.886194,25.314 23.258194,23.825 24.711194,22.248 L24.975194,21.962 L18.984194,15.912 C18.666194,16.223 17.293194,17.566 17.190194,17.661 C17.132194,17.719 17.042194,17.786 16.941194,17.838 C15.055194,18.787 11.391194,15.046 10.008194,13.191 C8.63919405,11.355 8.29819405,10.052 8.99319405,9.319 L10.806194,7.541 L4.84119405,1.459 Z M19.648194,26.765 C16.437194,26.765 12.541194,24.318 7.39819405,19.073 C2.29019405,13.862 -0.0608059501,9.94 0.00119404987,6.73 C0.0531940499,4.035 1.77619405,2.409 3.29619405,0.973 C3.50819405,0.774 3.71719405,0.577 3.91819405,0.379 C4.17119405,0.132 4.49519405,0.013 4.85219405,0 C5.20019405,0.002 5.54019405,0.147 5.78419405,0.396 L11.886194,6.619 C12.131194,6.868 12.266194,7.2 12.263194,7.553 C12.261194,7.907 12.121194,8.238 11.869194,8.485 L10.056194,10.26 C10.002194,10.827 11.429194,13.128 13.736194,15.111 C15.374194,16.517 16.171194,16.621 16.295194,16.577 C16.354194,16.503 18.072194,14.822 18.072194,14.822 C18.614194,14.319 19.421194,14.336 19.924194,14.847 L26.049194,21.033 C26.548194,21.541 26.558194,22.344 26.074194,22.862 L25.753194,23.208 C24.236194,24.855 22.516194,26.722 19.745194,26.765 L19.648194,26.765 Z"></path>
                    </g>
                </g>
            </g>
        </g>
    </g>
</svg>