<svg xmlns="http://www.w3.org/2000/svg" width="53.8" height="54.9" viewBox="0 0 53.8 54.9">
  <g>
    <path d="M12.1,50.2a1.1355,1.1355,0,0,1-.8-.3C5.9,45.6,4.9,43.5,4.7,43v-.1a5.113,5.113,0,0,1,.5-4.2,4.26362,4.26362,0,0,1,3.2-1.8h0A4.232,4.232,0,0,1,12,38.2a4.232,4.232,0,0,1,3.6-1.3h.1a4.628,4.628,0,0,1,3.2,1.9,5.00664,5.00664,0,0,1,.5,4v.1c-.7,2.1-5.4,6.2-6.4,7A1.61294,1.61294,0,0,1,12.1,50.2Zm-4.9-8c.3.9,2.7,3.1,4.9,5,2.2-1.9,4.5-4.3,4.8-5.2a2.29224,2.29224,0,0,0-.2-1.8,1.95983,1.95983,0,0,0-1.4-.8c-1.5-.1-2,1.4-2.1,1.7a1.26757,1.26757,0,0,1-1.2,1h0a1.18781,1.18781,0,0,1-1.2-1,2.07822,2.07822,0,0,0-2.1-1.7c-1,.1-1.3.5-1.3.7A2.517,2.517,0,0,0,7.2,42.2Z" style="fill: #c1c0c0"/>
    <path d="M23.7,54.9h0L1.3,54.8A1.32372,1.32372,0,0,1,0,53.5V31.4a1.32372,1.32372,0,0,1,1.3-1.3H23.7A1.32372,1.32372,0,0,1,25,31.4v5.7h4a1.2994,1.2994,0,0,1,1.2.8,1.23831,1.23831,0,0,1-.3,1.4L25,44.2v9.4a1.37177,1.37177,0,0,1-1.3,1.3ZM2.6,52.2l19.5.1V43.6a1.08577,1.08577,0,0,1,.4-.9l3.4-3.1H23.7c-.7,0-1.6-.6-1.6-1.3V32.6H2.6Z" style="fill: #c1c0c0"/>
    <path d="M20.7,25H1.3A1.32372,1.32372,0,0,1,0,23.7V7a1.08577,1.08577,0,0,1,.4-.9,1.48929,1.48929,0,0,1,.9-.4H7.6L12.9.4A1.23831,1.23831,0,0,1,14.3.1a1.2994,1.2994,0,0,1,.8,1.2V5.7h5.7A1.32372,1.32372,0,0,1,22.1,7V23.7A1.49322,1.49322,0,0,1,20.7,25ZM2.6,22.4H19.5V8.3H13.8A1.32372,1.32372,0,0,1,12.5,7V4.5L9,8a1.48929,1.48929,0,0,1-.9.4H2.6Z" style="fill: #c1c0c0"/>
    <path d="M45.2,39a1.08577,1.08577,0,0,1-.9-.4l-5.4-5.4-10.1.1h0a1.08577,1.08577,0,0,1-.9-.4,1.48929,1.48929,0,0,1-.4-.9V2.6a1.32372,1.32372,0,0,1,1.3-1.3H52.5a1.32372,1.32372,0,0,1,1.3,1.3V32a1.32372,1.32372,0,0,1-1.3,1.3h-6v4.5a1.2994,1.2994,0,0,1-.8,1.2Zm-5.8-8.4a1.08577,1.08577,0,0,1,.9.4l3.6,3.6V31.9a1.32372,1.32372,0,0,1,1.3-1.3h6V3.9H30V30.7l9.4-.1Z" style="fill: #c1c0c0"/>
    <path d="M44,25.8a7.75322,7.75322,0,0,1-1.9-.2H38.2a1.60584,1.60584,0,0,1-1.1-.5,7.36311,7.36311,0,0,0-1.8-1.8H33.2A1.32372,1.32372,0,0,1,31.9,22l-.1-7.3a1.08577,1.08577,0,0,1,.4-.9,1.48929,1.48929,0,0,1,.9-.4H36c.6,0,2.1-1.2,2.1-1.8a28.41713,28.41713,0,0,0-.3-3.1,1.28622,1.28622,0,0,1,.4-1.2,1.2274,1.2274,0,0,1,1.3-.2A6.77231,6.77231,0,0,1,44,12.8a18.48321,18.48321,0,0,1,2.4-.1,3.0388,3.0388,0,0,1,2.4,1.1c.5.6,1,1.8.6,4-.1.7-.2,1.3-.3,2a15.34531,15.34531,0,0,1-1,4.1c-.4.9-1.3,1.9-3.7,2A.756.756,0,0,0,44,25.8ZM38.8,23h3.7c1.4.3,3,.1,3.1-.3a12.97153,12.97153,0,0,0,.8-3.4l.3-2.1a2.57552,2.57552,0,0,0-.1-1.9.58445.58445,0,0,0-.4-.1,31.37893,31.37893,0,0,0-3.5.3,1.18974,1.18974,0,0,1-1.1-.4,1.50387,1.50387,0,0,1-.4-1.1,3.73549,3.73549,0,0,0-.8-3.1v.6c0,2-2.5,4.4-4.7,4.4H34.2l.1,4.7h.9A5.2464,5.2464,0,0,1,38.8,23Z" style="fill: #c1c0c0"/>
  </g>
</svg>
