<svg xmlns="http://www.w3.org/2000/svg" width="48.00007" height="59.70006" viewBox="0 0 48.00007 59.70006">
  <path d="M43.5,48.9a1,1,0,0,1,1-.5h2.7a.79.79,0,0,0,.8-.77987q.00012-.01007,0-.02013V43.7a.79.79,0,0,0-.77987-.8q-.01006-.00012-.02013,0H44.6a1.05,1.05,0,0,1-1-.6,9.35947,9.35947,0,0,1-.4-1.6,1.79,1.79,0,0,1,.6-1l1.6-1.6a.91.91,0,0,0,0-1.2l-1.6-1.6a2.51,2.51,0,0,1-.6-1.4V17.3a4.89042,4.89042,0,0,0-.1-1.3,5,5,0,0,0-1-1.3L28.5,1.1a6.42017,6.42017,0,0,0-1.3-1H25.9L2.4,0A7.5794,7.5794,0,0,0,.8.3L.3.9A3.99987,3.99987,0,0,0,0,2.4V52a7.5794,7.5794,0,0,0,.3,1.6l.6.6a4.15014,4.15014,0,0,0,1.6.3H21.7a2.25,2.25,0,0,1,1.4.6l1.8,1.8a.91.91,0,0,0,1.2,0l1.8-1.8.6-.6.8.4c.4.2,1.5,1,1.5,1.4v2.6a.79.79,0,0,0,.77987.8q.01007.00012.02013,0h3.9a.79.79,0,0,0,.8-.77988q.00012-.01006,0-.02012V56.3a1.33,1.33,0,0,1,.8-1.1,4.41977,4.41977,0,0,0,.8-.3,1.23,1.23,0,0,1,1.3.2L41.1,57a.91.91,0,0,0,1.2,0l2.8-2.8a.91.91,0,0,0,0-1.2l-1.4-1.4a2.27,2.27,0,0,1-.6-1.2A8.32969,8.32969,0,0,1,43.5,48.9ZM3.3,4.1a.79.79,0,0,1,.77987-.8q.01006-.00013.02013,0l20,.1a.79.79,0,0,1,.8.77987q.00014.01006,0,.02013V15.8a7.5794,7.5794,0,0,0,.3,1.6l.6.6a4.15,4.15,0,0,0,1.6.3H38.9a.79.79,0,0,1,.8.77987q.00012.01007,0,.02013V34.8a2.5001,2.5001,0,0,1-.4,1.3,1.23,1.23,0,0,1-1.2.1c-.4-.2-1.5-1-1.5-1.4V32.1a.79.79,0,0,0-.77987-.8q-.01006-.00014-.02013,0H31.9a.79.79,0,0,0-.8.77987q-.00014.01006,0,.02013v2.6a1.33,1.33,0,0,1-.8,1.1,4.42076,4.42076,0,0,0-.8.3,1.23,1.23,0,0,1-1.3-.2l-1.9-2a.91.91,0,0,0-1.2,0l-2.8,2.8a.91.91,0,0,0,0,1.2l1.8,1.8a1.23,1.23,0,0,1,.2,1.3c-.2.4-1,1.5-1.4,1.5H20.2a.79.79,0,0,0-.8.77988q-.00012.01006,0,.02012v3.9a.79.79,0,0,0,.77987.8q.01006.00014.02013,0h2.6a1.33,1.33,0,0,1,1.1.8,4.41977,4.41977,0,0,0,.3.8,1.07,1.07,0,0,1,0,1.1A1.92,1.92,0,0,1,23,51H4a.79.79,0,0,1-.8-.77987q-.00014-.01006,0-.02013V4.1ZM29,45.5a4.69,4.69,0,1,1,0,.02Q29,45.51,29,45.5Z" style="fill: #c1c0c0"/>
</svg>
