<svg xmlns="http://www.w3.org/2000/svg" width="45" height="59.6" viewBox="0 0 45 59.6">
  <g>
    <ellipse cx="22.5" cy="6.3" rx="22.5" ry="6.3" style="fill: #c1c0c0"/>
    <path d="M22.5,17.3C10.1,17.3,0,14.2,0,10.3V21.6c0,3.8,10.1,7,22.5,7S45,25.5,45,21.6V10.3C45,14.2,34.9,17.3,22.5,17.3Zm16.1,4.9a1.3,1.3,0,1,1,1.3-1.3A1.32372,1.32372,0,0,1,38.6,22.2Z" style="fill: #c1c0c0"/>
    <path d="M22.5,32.8C10.1,32.8,0,29.7,0,25.8V37.1c0,3.8,10.1,7,22.5,7S45,41,45,37.1V25.8C45,29.7,34.9,32.8,22.5,32.8ZM38.6,38a1.3,1.3,0,1,1,1.3-1.3A1.32372,1.32372,0,0,1,38.6,38Z" style="fill: #c1c0c0"/>
    <path d="M22.5,48.3C10.1,48.3,0,45.2,0,41.3V52.6c0,3.8,10.1,7,22.5,7S45,56.5,45,52.6V41.3C45,45.1,34.9,48.3,22.5,48.3Zm16.1,4.8a1.3,1.3,0,1,1,1.3-1.3A1.32372,1.32372,0,0,1,38.6,53.1Z" style="fill: #c1c0c0"/>
  </g>
</svg>
