<svg xmlns="http://www.w3.org/2000/svg" width="53" height="60" viewBox="0 0 53 60"><path d="M30.5,29.889a7.784,7.784,0,0,0-2.208,15.222v4.778a2.208,2.208,0,1,0,4.417,0V45.111A7.784,7.784,0,0,0,30.5,29.889ZM30.5,41a3.333,3.333,0,1,1,3.313-3.333A3.324,3.324,0,0,1,30.5,41ZM52.583,21H42.646V13.222a12.146,12.146,0,1,0-24.292,0V21H8.417A4.429,4.429,0,0,0,4,25.444V56.556A4.429,4.429,0,0,0,8.417,61H52.583A4.429,4.429,0,0,0,57,56.556V25.444A4.429,4.429,0,0,0,52.583,21ZM22.771,13.222a7.729,7.729,0,1,1,15.458,0V21H22.771ZM52.583,56.556H8.417V25.444H52.583Z" transform="translate(-4 -1)" fill="#c1c1c1"/></svg>