<svg xmlns="http://www.w3.org/2000/svg" width="57" height="60" viewBox="0 0 57 60"><path d="M40.747,30.483a13.257,13.257,0,0,1,11.2,20.3L61,59.908,56.915,64l-9.172-9.035a13.238,13.238,0,1,1-7-24.482m0,5.886A7.356,7.356,0,1,0,48.1,43.725a7.353,7.353,0,0,0-7.349-7.356M9.88,4H51.034a5.863,5.863,0,0,1,5.88,5.886V33.513a19.986,19.986,0,0,0-5.88-5.972V9.886H9.88V51.081H23.109a19.23,19.23,0,0,0,3.85,5.886H9.88A5.863,5.863,0,0,1,4,51.081V9.886A5.863,5.863,0,0,1,9.88,4m5.878,11.77h29.4v5.886h-29.4V15.77m0,11.772H30.545a19.933,19.933,0,0,0-5.968,5.884H15.758V27.541m0,11.77h6.381a20.484,20.484,0,0,0-.5,4.414V45.2h-5.88Z" transform="translate(-4 -4)" fill="#c1c1c1"/></svg>