<svg xmlns="http://www.w3.org/2000/svg" width="53.6" height="51.9" viewBox="0 0 53.6 51.9">
  <g>
    <g>
      <path d="M24.7.1a.45751.45751,0,0,1,.5.4V12.9a.45751.45751,0,0,1-.4.5H.7c-.3,0-.3-.2-.2-.4L8.4.4A1.0122,1.0122,0,0,1,9.1,0Z" style="fill: #c1c0c0"/>
      <path d="M29.2.1a.45751.45751,0,0,0-.5.4V12.9a.45751.45751,0,0,0,.4.5H53.2c.3,0,.3-.2.2-.4L45.6.4a1.61176,1.61176,0,0,0-.7-.4Z" style="fill: #c1c0c0"/>
    </g>
    <path d="M0,18V51a.89626.89626,0,0,0,.9.9H52.7a.89626.89626,0,0,0,.9-.9V18a.89626.89626,0,0,0-.9-.9H.9A.89626.89626,0,0,0,0,18Zm36.1,8.4A2.64744,2.64744,0,0,1,33.5,29H21a2.64744,2.64744,0,0,1-2.6-2.6h0A2.64744,2.64744,0,0,1,21,23.8H33.5a2.58189,2.58189,0,0,1,2.6,2.6Z" style="fill: #c1c0c0"/>
  </g>
</svg>
