<svg xmlns="http://www.w3.org/2000/svg" width="54" height="60" viewBox="0 0 54 60"><path d="M10,62.667a5.786,5.786,0,0,1-4.239-1.76A5.786,5.786,0,0,1,4,56.668v-42A5.778,5.778,0,0,1,5.762,10.43,5.781,5.781,0,0,1,10,8.666h3v-6h6v6H43v-6h6v6h3a6.019,6.019,0,0,1,6,6v42a6.011,6.011,0,0,1-6,6Zm0-6H52v-30H10Zm0-36H52v-6H10Zm0,0v0Zm21,18a2.944,2.944,0,1,1,2.14-.864A2.892,2.892,0,0,1,31,38.668Zm-12,0a2.948,2.948,0,1,1,2.138-.864A2.906,2.906,0,0,1,19,38.668Zm24,0a2.951,2.951,0,1,1,2.138-.864A2.9,2.9,0,0,1,43,38.668Zm-12,12a2.944,2.944,0,1,1,2.14-.864A2.892,2.892,0,0,1,31,50.667Zm-12,0a2.948,2.948,0,1,1,2.138-.864A2.906,2.906,0,0,1,19,50.667Zm24,0a2.951,2.951,0,1,1,2.138-.864A2.9,2.9,0,0,1,43,50.667Z" transform="translate(-4 -2.667)" fill="#c1c1c1"/></svg>