<svg xmlns="http://www.w3.org/2000/svg" width="54" height="60" viewBox="0 0 54 60"><path d="M42.281,48.381a2.858,2.858,0,1,1-2.843,2.856,2.823,2.823,0,0,1,2.843-2.856m0-8.571A18.316,18.316,0,0,0,25.229,51.237a18.435,18.435,0,0,0,34.1,0A18.318,18.318,0,0,0,42.281,39.809m0,18.572a7.143,7.143,0,1,1,7.1-7.144,7.126,7.126,0,0,1-7.1,7.144M20.311,54.1H11.018V8.38H30.911V22.666H45.122V34.3a23.621,23.621,0,0,1,5.685,1.4V19.81L33.755,2.667H11.018A5.7,5.7,0,0,0,5.333,8.38V54.1a5.7,5.7,0,0,0,5.685,5.713H23.807A23.274,23.274,0,0,1,20.311,54.1Z" transform="translate(-5.333 -2.667)" fill="#c1c1c1"/></svg>