<svg xmlns="http://www.w3.org/2000/svg" width="56" height="53" viewBox="0 0 56 53"><path d="M45.575,55H24.042a5.064,5.064,0,0,1-5.069-5.048V25.187a5.283,5.283,0,0,1,3.071-4.732c2.987-1.4,5.233-3.091,6.163-4.634,1.377-2.287,2.027-6.754,2.166-9.885a7.423,7.423,0,0,1,.049-.812A3.48,3.48,0,0,1,33.2,2.079c3.176-.649,7.252,2.864,8.863,5.535a11.933,11.933,0,0,1,1.373,6.966,25.322,25.322,0,0,1-1.251,5.806l-.158.524H52.384a5.053,5.053,0,0,1,4.881,6.419l-6.807,24A5.09,5.09,0,0,1,45.575,55ZM35.334,7.767c-.234,2.743-.9,7.526-2.776,10.649-1.865,3.093-5.571,5.3-8.351,6.606a.287.287,0,0,0-.164.165V49.952l21.533,0,6.809-24-13.763,0a2.529,2.529,0,0,1-2.428-3.25L37.309,19a21.629,21.629,0,0,0,1.067-4.734,7.331,7.331,0,0,0-.662-4.058A8.834,8.834,0,0,0,35.334,7.767ZM11.367,55H8.621a5.036,5.036,0,0,1-5.054-4.613L1.473,26.414v0a5.061,5.061,0,0,1,4.615-5.465c.139-.013.289-.019.437-.019h4.841a5.064,5.064,0,0,1,5.069,5.048V49.952A5.064,5.064,0,0,1,11.367,55ZM6.525,25.977,8.619,49.952l2.748,0V25.977Z" transform="translate(-1.454 -2.001)" fill="#c1c1c1"/></svg>